<?xml version="1.0" standalone="no"?><!DOCTYPE svg PUBLIC "-//W3C//DTD SVG 1.1//EN" "http://www.w3.org/Graphics/SVG/1.1/DTD/svg11.dtd"><svg t="1631069160143" class="icon" viewBox="0 0 1024 1024" version="1.1" xmlns="http://www.w3.org/2000/svg" p-id="11107" width="128" height="128" data-spm-anchor-id="a313x.7781069.0.i8" xmlns:xlink="http://www.w3.org/1999/xlink"><defs><style type="text/css"></style></defs><path d="M897.042 127.609H129.15c-16.978 0-30.716 13.753-30.716 30.716v552.882c0 16.978 13.738 30.716 30.716 30.716h276.441L513.096 895.5l107.505-153.578h276.441c16.978 0 30.716-13.738 30.716-30.716V158.324c-0.001-16.963-13.738-30.715-30.716-30.715z m-30.716 552.881h-277.7l-75.53 107.895-75.528-107.895H159.866V189.04h706.46v491.45z" p-id="11108" fill="#515151"></path><path d="M431.988 363.02c0-37.285-29.887-67.508-66.74-67.508-36.854 0-66.728 30.223-66.728 67.508s29.873 67.508 66.728 67.508c36.853 0 66.74-30.224 66.74-67.508zM660.058 297.527c-17.022 0.064-33.908 7.202-45.915 19.406-12.003 12.207-18.988 29.334-18.988 46.564 0 17.232 6.985 34.352 18.988 46.559 12.007 12.207 28.893 19.347 45.915 19.406 17.021 0.063 33.969-6.949 46.076-19.066 12.107-12.122 19.225-29.192 19.346-46.427v-0.948c-0.122-17.23-7.239-34.306-19.346-46.423-12.107-12.122-29.056-19.134-46.076-19.071zM590.106 545.594c-57.972 27.212-126.674 27.212-184.646 0-10.754-5.046-23.56-0.422-28.61 10.327-5.046 10.754-0.422 23.561 10.332 28.61 69.552 32.648 151.652 32.648 221.204 0 10.749-5.049 15.373-17.856 10.328-28.61-5.047-10.748-17.852-15.373-28.608-10.327z" p-id="11109" fill="#515151"></path></svg>