<svg xmlns="http://www.w3.org/2000/svg" xmlns:xlink="http://www.w3.org/1999/xlink" width="1981.2499885559082" height="1096.530029296875" viewBox="0 0 1981.2499885559082 1096.530029296875" fill="none">
<rect x="0" y="0" width="0" height="0" fill="rgba(249, 249, 249, 1)" />
<path d="M1594.74 908.6C1612.67 817.57 1559.36 759.3 1533.36 736.97C1527.16 731.68 1520.39 727.12 1513.16 723.36C1441.78 685.17 1410.79 541.42 1398.58 456C1386.01 368.34 1350.14 287 1294.83 224.58C1256.2 180.6 1208.27 145.75 1154.51 122.58C1002.31 56.86 830.32 112.14 727.76 256.8C717.51 271.07 707.32 284.44 697.25 297.07C623.39 389.33 524.95 450.83 417.39 474.01C115.9 538.81 83.9 906.72 83.9 906.72L1594.74 908.6Z"   fill="#EDF3FF" >
</path>
<path    stroke="rgba(1, 110, 252, 0.25)" stroke-width="1.77"    d="M887.18 694.94L1090.18 694.94">
</path>
<path    stroke="rgba(1, 110, 252, 0.25)" stroke-width="1.77"    d="M610.86 723.74L1019.21 723.74">
</path>
<path    stroke="rgba(1, 110, 252, 0.25)" stroke-width="1.77"    d="M741.12 752.6L981.38 752.6">
</path>
<path    stroke="rgba(1, 110, 252, 0.25)" stroke-width="1.77"    d="M829.28 666L981.38 666">
</path>
<path    stroke="rgba(1, 110, 252, 0.25)" stroke-width="1.77"    d="M829.28 815.38L981.38 815.38">
</path>
<path    stroke="rgba(1, 110, 252, 0.25)" stroke-width="1.77"    d="M893.28 784.2L1133.51 784.2">
</path>
<path    stroke="rgba(1, 110, 252, 0.25)" stroke-width="1.77"    d="M901.28 728.25L901.28 748">
</path>
<path    stroke="rgba(1, 110, 252, 0.25)" stroke-width="1.77"    d="M837.27 728.25L837.27 748">
</path>
<path    stroke="rgba(1, 110, 252, 0.25)" stroke-width="1.77"    d="M901.28 790.49L901.28 810.2">
</path>
<path    stroke="rgba(1, 110, 252, 0.25)" stroke-width="1.77"    d="M966.51 790.49L966.51 810.2">
</path>
<path    stroke="rgba(1, 110, 252, 0.25)" stroke-width="1.77"    d="M901.28 671.15L901.28 690.91">
</path>
<path    stroke="rgba(1, 110, 252, 0.25)" stroke-width="1.77"    d="M966.51 728.25L966.51 748">
</path>
<path    stroke="rgba(1, 110, 252, 0.25)" stroke-width="1.77"    d="M966.51 670.54L966.51 690.3">
</path>
<path    stroke="rgba(1, 110, 252, 0.25)" stroke-width="1.77"    d="M932.94 699.39L932.94 719.16">
</path>
<path    stroke="rgba(1, 110, 252, 0.25)" stroke-width="1.77"    d="M1000.11 699.39L1000.11 719.16">
</path>
<path    stroke="rgba(1, 110, 252, 0.25)" stroke-width="1.77"    d="M1008.29 170L1211.29 170">
</path>
<path    stroke="rgba(1, 110, 252, 0.25)" stroke-width="1.77"    d="M978.7 198.9L1140.7 198.9">
</path>
<path    stroke="rgba(1, 110, 252, 0.25)" stroke-width="1.77"    d="M932.94 227.7L1150.69 227.7">
</path>
<path    stroke="rgba(1, 110, 252, 0.25)" stroke-width="1.77"    d="M950.63 141.06L1102.74 141.06">
</path>
<path    stroke="rgba(1, 110, 252, 0.25)" stroke-width="1.77"    d="M1022.57 203.48L1022.57 223.13">
</path>
<path    stroke="rgba(1, 110, 252, 0.25)" stroke-width="1.77"    d="M958.57 203.48L958.57 223.13">
</path>
<path    stroke="rgba(1, 110, 252, 0.25)" stroke-width="1.77"    d="M1022.57 146L1022.57 165.77">
</path>
<path    stroke="rgba(1, 110, 252, 0.25)" stroke-width="1.77"    d="M1087.97 203.48L1087.97 223.13">
</path>
<path    stroke="rgba(1, 110, 252, 0.25)" stroke-width="1.77"    d="M1087.97 145.7L1087.97 165.41">
</path>
<path    stroke="rgba(1, 110, 252, 0.25)" stroke-width="1.77"    d="M1054.23 174.62L1054.23 194.27">
</path>
<path    stroke="rgba(1, 110, 252, 0.25)" stroke-width="1.77"    d="M1121.51 174.62L1121.51 194.27">
</path>
<path    stroke="rgba(1, 110, 252, 0.25)" stroke-width="1.77"    d="M278.59 841L454 841">
</path>
<path    stroke="rgba(1, 110, 252, 0.25)" stroke-width="1.77"    d="M116.24 869.87L410.86 869.87">
</path>
<path    stroke="rgba(1, 110, 252, 0.25)" stroke-width="1.77"    d="M220.87 812.09L372.97 812.09">
</path>
<path    stroke="rgba(1, 110, 252, 0.25)" stroke-width="1.77"    d="M292.8 817L292.8 836.71">
</path>
<path    stroke="rgba(1, 110, 252, 0.25)" stroke-width="1.77"    d="M358.27 816.66L358.27 836.43">
</path>
<path    stroke="rgba(1, 110, 252, 0.25)" stroke-width="1.77"    d="M324.51 845.64L324.51 865.29">
</path>
<path    stroke="rgba(1, 110, 252, 0.25)" stroke-width="1.77"    d="M391.64 845.64L391.64 865.29">
</path>
<path    stroke="rgba(1, 110, 252, 0.25)" stroke-width="1.77"    d="M1000.11 758.33L1000.11 778">
</path>
<path    stroke="rgba(1, 110, 252, 0.25)" stroke-width="1.77"    d="M1065.7 758.33L1065.7 778">
</path>
<path    stroke="rgba(1, 110, 252, 0.25)" stroke-width="1.77"    d="M932.94 758.33L932.94 778">
</path>
<path    stroke="rgba(1, 110, 252, 0.25)" stroke-width="1.77"    d="M868.15 758.33L868.15 778">
</path>
<path d="M82.36 905.62C0 970.11 172.36 995.52 272.84 1004.52C278.21 1004.95 360.76 1009.04 272.84 1014.59C141.91 1022.83 209.03 1047.23 209.03 1047.23C311.9 1096.53 1086.57 1060.47 1293.03 1049.86C1300.58 1049.45 1413.78 1041.98 1339.58 1025.45C1263.38 1008.34 1318.78 1004.34 1318.78 1004.34C1981.25 946.27 1592.97 907.27 1592.97 907.27L82.36 905.62Z"   fill="#C6DDFF" >
</path>
<path    stroke="rgba(1, 110, 252, 1)" stroke-width="1.77"    d="M57.42 906.35L1679.91 906.35">
</path>
<path d="M1377.17 975.05C1377.17 966.93 1301.57 960.47 1208.29 960.47C1115.01 960.47 1039.71 967 1039.71 975.05C1039.71 983.1 1115 989.7 1208.29 989.7C1301.57 989.7 1377.17 983.17 1377.17 975.05Z"   fill="#8DBFFC" >
</path>
<path d="M614.64 965.11C614.64 957.06 549.24 950.53 468.64 950.53C388.04 950.53 322.64 957.05 322.64 965.11C322.64 973.17 388.04 979.69 468.64 979.69C549.24 979.69 614.64 973.16 614.64 965.11Z"   fill="#8DBFFC" >
</path>
<path d="M975.97 965.84C975.97 952.97 868.97 942.59 736.97 942.59C604.97 942.59 497.97 953.03 497.97 965.84C497.97 978.65 604.94 989.15 736.97 989.15C868.97 989.15 975.97 978.71 975.97 965.84Z"   fill="#8DBFFC" >
</path>
<path d="M579.34 476.21L579.34 545.21L642.34 545.21L642.34 476.21L579.34 476.21Z"   fill="#8DBFFC" >
</path>
<path d="M481.33 342.22L481.33 499.22L740.75 499.22L740.75 342.22L481.33 342.22Z"   fill="#C6DDFF" >
</path>
<path d="M726.3 472.36L726.3 369.32C726.31 369.28 726.31 369.23 726.3 369.19C726.75 362.98 722.07 357.57 715.86 357.12L505.94 357.12C502.94 357.35 500.15 358.76 498.2 361.05C496.24 363.34 495.27 366.31 495.51 369.31L495.51 472.18C495.06 478.42 499.74 483.85 505.98 484.32L715.86 484.32C722.03 483.88 726.69 478.54 726.3 472.36Z"   fill="#FFFFFF" >
</path>
<path d="M683.22 816.54L796.51 901.17L796.51 594.76L683.22 594.76L683.22 816.54Z"   fill="#6AACEF" >
</path>
<path d="M683.22 816.54L683.22 964.44L796.51 964.44L796.51 901.17L683.22 816.54Z"   fill="#8DBFFC" >
</path>
<path d="M638.13 947.11L638.13 968.11L833.8 968.11L833.8 947.11L638.13 947.11Z"   fill="#C6DDFF" >
</path>
<path d="M450.34 532.89L450.34 545.09L610.86 545.09L610.86 532.89L450.34 532.89Z"   fill="#8DBFFC" >
</path>
<path d="M1054.6 594.76L1054.6 562.12L419.4 562.12L419.4 594.76L1054.6 594.76Z"   fill="#8DBFFC" >
</path>
<path d="M1070.64 562.05L1070.64 540.7L403.42 540.7L403.42 562.05L1070.64 562.05Z"   fill="#C6DDFF" >
</path>
<path d="M827.76 521.05L783.89 521.05C773.95 521.8 766.43 530.37 766.99 540.33L844.51 540.33C845.08 530.43 837.65 521.87 827.76 521.05Z"   fill="#8DBFFC" >
</path>
<path d="M791.03 487.68L791.03 521.48L820.56 521.48L820.56 487.68L791.03 487.68Z"   fill="#C6DDFF" >
</path>
<path    stroke="rgba(1, 110, 252, 1)" stroke-width="2.38"  stroke-linecap="round"  d="M829.28 328.62L817.08 328.62C813.85 328.85 810.85 330.36 808.73 332.81C806.61 335.25 805.56 338.44 805.79 341.67L805.79 486.52">
</path>
<path d="M824.1 326.48C824.12 329.79 824.8 333.07 826.1 336.12L866.24 336.12C867.61 333.09 868.31 329.8 868.27 326.48L824.1 326.48Z"   fill="#8DBFFC" >
</path>
<path d="M842.51 347.78L849.95 347.78C857.15 347.52 863.53 343.05 866.24 336.37L826.17 336.12C828.81 342.91 835.23 347.49 842.51 347.78Z"   fill="#FFFFFF" >
</path>
<path     fill="#C6DDFF"  d="M1037.64 494.82L900.97 516.66L900.97 540.46L1037.64 540.46">
</path>
<path    stroke="rgba(1, 110, 252, 1)" stroke-width="1.77"  stroke-linecap="round"  d="M1037.76 494.82L901.09 516.66L901.09 540.46L1037.76 540.46">
</path>
<path    stroke="rgba(255, 255, 255, 1)" stroke-width="1.77"    d="M904.94 521.48L1033.61 504.4">
</path>
<path    stroke="rgba(255, 255, 255, 1)" stroke-width="1.77"    d="M904.94 526.18L1033.06 514.77">
</path>
<path    stroke="rgba(255, 255, 255, 1)" stroke-width="1.77"    d="M904.94 530.82L1033.06 525.08">
</path>
<path    stroke="rgba(255, 255, 255, 1)" stroke-width="1.77"    d="M904.94 534.66L1033.06 534.66">
</path>
<path     fill="#C6DDFF"  d="M896.27 467.54L1034.27 467.54L1037.14 491.1L901.94 512.51">
</path>
<path    stroke="rgba(1, 110, 252, 1)" stroke-width="1.77"  stroke-linecap="round"  d="M896.58 467.54L1034.51 467.54L1037.44 491.1L902.07 512.51">
</path>
<path    stroke="rgba(255, 255, 255, 1)" stroke-width="1.77"    d="M1030.86 472.79L901.58 476.27">
</path>
<path    stroke="rgba(255, 255, 255, 1)" stroke-width="1.77"    d="M1031.41 477.49L903.29 486.49">
</path>
<path    stroke="rgba(255, 255, 255, 1)" stroke-width="1.77"    d="M1031.96 482L904.57 496.59">
</path>
<path    stroke="rgba(255, 255, 255, 1)" stroke-width="1.77"    d="M1032.45 485.85L905.91 506.41">
</path>
<path d="M139.91 702.14L139.91 890.79L274.13 890.79L274.13 702.14L139.91 702.14Z"   fill="#C6DDFF" >
</path>
<path d="M133.75 889.94L133.75 906.54L280.17 906.54L280.17 889.94L133.75 889.94Z"   fill="#6AACEF" >
</path>
<path d="M133.75 889.94L133.75 906.54L280.17 906.54L280.17 889.94L133.75 889.94Z"   fill="#8DBFFC" >
</path>
<path d="M226.3 639.36L187.99 639.36C161.38 639.36 139.91 663.76 139.91 694.27L274.13 694.27C274.13 663.89 252.66 639.3 226.3 639.36Z"   fill="#C6DDFF" >
</path>
<path d="M188.29 694.21L226 694.21L226 639.3L188.29 639.3L188.29 694.21Z"   fill="#8DBFFC" >
</path>
<path d="M180.18 885.12L180.18 896.89L232.1 896.89L232.1 885.12L180.18 885.12Z" stroke="rgba(1, 110, 252, 1)" stroke-width="1.16"      fill="#8DBFFC" >
</path>
<path d="M1518.23 131C1518.23 88.78 1488.23 54.55 1451.11 54.55C1413.99 54.55 1384 88.77 1384 131C1384 173.23 1414.14 207.45 1451.11 207.45C1487.72 207.45 1518.23 173.22 1518.23 131Z"   fill="#8DBFFC" >
</path>
<path d="M1510.23 130.75C1510.23 93.65 1483.76 63.21 1451.11 63.21C1418.46 63.21 1391.99 93.72 1391.99 130.75C1391.99 167.78 1418.51 198.35 1451.11 198.35C1483.76 198.35 1510.23 167.85 1510.23 130.75Z"   fill="#EDF3FF" >
</path>
<path    stroke="rgba(1, 110, 252, 1)" stroke-width="1.77"    d="M1451.11 92L1451.11 130.92L1476.31 130.92">
</path>
<path d="M1510.97 745.46C1522.47 739.14 1530.44 727.9 1532.57 714.95C1533.48 710.17 1533.48 705.27 1532.57 700.49C1529.68 690.12 1528.63 679.32 1529.45 668.58C1530.12 660.81 1532.88 653.37 1537.45 647.05C1544.55 637.42 1548.78 625.98 1549.65 614.05C1550.06 604.77 1547.35 595.62 1541.96 588.05C1533.64 575.97 1530.16 561.21 1532.2 546.68C1532.2 546.68 1537.57 503.12 1512.2 499.39C1512.2 499.39 1483.4 501.96 1487.06 552.6C1487.06 552.6 1490.97 577.6 1482.12 594.51C1482.12 594.51 1463.02 616.11 1474.74 657.6C1474.74 657.6 1483.58 680.72 1470.16 697.08C1470.09 696.89 1448.51 723.43 1477.23 798.36C1477.23 798.36 1480.46 761.75 1510.97 745.46Z"   fill="#FCBC29" >
</path>
<path d="M1474.12 698.04C1463.44 675.53 1475.64 649.23 1475.64 649.23C1493.88 601.09 1478.14 570.58 1478.14 570.58C1471.92 547.95 1479.79 518.24 1479.79 518.24C1491.38 457.16 1462.89 447.52 1462.89 447.52C1437.02 446.3 1435.56 500.72 1435.56 500.72C1434.7 538.43 1413.41 555.09 1413.41 555.09C1396.75 594.93 1418.66 630.93 1418.66 630.93C1420.4 650.42 1417.77 670.05 1410.97 688.4C1403.89 710.79 1415.18 740.63 1415.18 740.63C1454.17 764.44 1450.99 820.63 1450.99 820.63C1491.63 735.7 1474.05 698.42 1474.12 698.04Z"   fill="#FF5925" >
</path>
<path    stroke="rgba(255, 255, 255, 1)" stroke-width="1.77"    d="M1457.64 498L1450.14 845.1">
</path>
<path    stroke="rgba(255, 255, 255, 1)" stroke-width="1.77"    d="M1506.64 551.86L1472.9 841">
</path>
<path d="M1437.33 725.95C1424.82 711.49 1432.44 690.13 1432.44 690.13C1442.39 652.06 1424.57 632.84 1424.57 632.84C1416.27 617.71 1419.27 594.77 1419.27 594.77C1421.65 548.46 1395.35 546.93 1395.35 546.93C1372.35 551.02 1378.08 590.5 1378.08 590.5C1380.86 606.08 1376.36 622.08 1365.88 633.94C1360.57 653.14 1366.08 673.71 1380.28 687.69C1384.24 701.73 1384.43 716.56 1380.83 730.69C1379.97 735.02 1379.97 739.48 1380.83 743.81C1382.98 755.67 1390.51 765.85 1401.21 771.39C1429.21 785.18 1432.87 818.68 1432.87 818.68C1457.64 749.67 1437.45 726.06 1437.33 725.95Z"   fill="#FCBC29" >
</path>
<path    stroke="rgba(255, 255, 255, 1)" stroke-width="1.77"    d="M1400.11 612.33L1432.87 818.68">
</path>
<path d="M1502.72 812.21L1405.72 812.21L1414.39 906.84L1493.7 906.84L1502.72 812.21Z"   fill="#CCD5DD" >
</path>
<path d="M1502.72 812.21L1405.72 812.21L1414.39 906.84L1493.7 906.84L1502.72 812.21Z"   fill="#8DBFFC" >
</path>
<path    stroke="rgba(255, 255, 255, 1)" stroke-width="1.77"    d="M1416.51 826.67L1489.72 826.67">
</path>
<path    stroke="rgba(255, 255, 255, 1)" stroke-width="1.77"    d="M1416.51 893.36L1489.72 893.36">
</path>
<path d="M417.25 49.45L417.25 209.45L580.25 209.45L580.25 49.45L417.25 49.45Z"   fill="#8DBFFC" >
</path>
<path d="M429.51 63L429.51 199L568.51 199L568.51 63L429.51 63Z"   fill="#FFFFFF" >
</path>
<path d="M1032.97 289.663L1032.97 285.663C1032.97 276.24 1025.33 268.594 1015.91 268.594L962.773 268.594C953.351 268.594 945.704 276.24 945.704 285.663L945.704 311.722C945.704 321.145 953.351 328.776 962.773 328.776L1015.91 328.776C1025.33 328.776 1032.97 321.145 1032.97 311.722L1032.97 308.71L1060.04 289.663L1032.97 289.663Z"   fill="#B9D5E8" >
</path>
<path d="M970.821 296.151C970.899 296.414 970.991 296.661 971.099 296.924C975.069 308.988 988.879 318.673 989.651 318.998L989.651 319.028C989.651 319.028 989.682 319.013 989.698 319.013L989.729 319.028L989.729 318.998C990.501 318.673 1004.3 308.972 1008.27 296.893C1008.36 296.63 1008.45 296.367 1008.53 296.12C1008.54 296.059 1008.56 295.997 1008.57 295.935C1008.81 295.24 1008.94 294.514 1009.04 293.741C1009.05 293.602 1009.11 293.479 1009.13 293.34L1009.08 293.34C1009.1 292.969 1009.18 292.629 1009.18 292.243C1009.16 286.049 1004.7 281.044 999.198 281.044C994.656 281.044 990.856 284.504 989.667 289.2C988.477 284.504 984.677 281.059 980.121 281.059C974.621 281.059 970.173 286.08 970.173 292.274C970.173 292.66 970.234 293 970.265 293.371L970.219 293.371C970.234 293.51 970.296 293.633 970.312 293.772C970.389 294.529 970.559 295.271 970.775 295.981C970.79 296.028 970.806 296.089 970.821 296.151Z"   fill="#FFFFFF" >
</path>
<path d="M939.76 378.666C939.775 378.678 939.789 378.689 939.803 378.701C939.865 378.716 939.927 378.747 940.004 378.778C939.929 378.746 939.847 378.708 939.76 378.666ZM939.803 378.701C939.789 378.689 939.775 378.678 939.76 378.666C937.645 377.649 932.134 373.957 928.96 373.171C927.677 372.862 926.071 372.877 925.53 373.959C924.403 376.245 929.299 378.948 930.86 380.137C933.594 382.192 935.355 383.783 937.734 385.467C935.417 384.833 929.778 380.956 925.793 379.736C924.125 379.241 922.101 378.979 921.483 380.4C920.664 382.207 924.434 384.895 925.669 385.837C931.617 390.41 938.212 395.554 942.198 400.141C946.786 405.455 950.029 410.692 952.656 417.087C953.289 418.647 954.015 422.262 955.498 422.957C956.193 423.281 958.201 422.926 958.943 422.679C961.46 421.798 964.086 419.867 967.454 417.597C968.751 416.732 970.049 415.944 971.547 414.615C972.737 413.565 974.961 411.974 975.301 411.263C975.826 410.151 975.162 407.309 974.76 405.61C973.556 400.698 971.331 393.947 970.234 389.915C969.261 386.409 968.273 382.748 967.408 379.38C966.573 376.167 963.932 365.648 959.792 366.312C956.378 366.853 960.117 376.708 959.962 379.473C957.212 375.689 951.79 370.328 945.086 366.359C943.341 365.308 939.757 362.945 938.537 364.35C936.853 366.281 939.634 368.289 940.715 369.463C942.229 371.085 943.202 372.46 944.747 373.603C942.074 372.615 936.915 368.907 933.609 368.212C932.528 367.996 931.122 368.135 930.674 368.969C929.639 370.885 932.605 372.507 934.351 373.959C936.709 375.903 938.111 377.347 939.76 378.666C939.847 378.708 939.929 378.746 940.004 378.778C939.927 378.747 939.865 378.716 939.803 378.701Z" fill-rule="evenodd"  fill="#FFCAD4" >
</path>
<path d="M947.651 371.889C943.495 373.217 937.764 379.89 937.363 386.038C937.317 387.089 937.517 388.726 937.873 389.359C939.541 379.458 944.469 374.391 947.651 371.889Z"   fill="#E24E6A" >
</path>
<path d="M955.312 394.719C955.328 389.715 956.425 384.571 960.209 379.087C955.776 380.863 952.146 390.78 955.312 394.719Z"   fill="#E24E6A" >
</path>
<path d="M1006.35 437.261C998.642 427.56 990.208 418.431 982.685 408.869C980.151 405.641 978.035 402.011 975.038 399.107C966.295 403.911 956.95 407.741 948.562 413.102C953.459 428.472 959.607 443.332 967.299 458.779C970.852 465.915 974.513 473.083 979.395 479.911C984.168 486.599 989.806 493.597 997.174 497.644C1005.02 501.954 1011.46 499.745 1017.33 496.733C1028.62 490.94 1036.38 481.764 1044.21 471.693C1049.51 464.896 1054.34 458.64 1059.3 450.731C1062.61 445.463 1066.18 438.852 1069.5 433.075C1070.7 430.974 1072.6 428.595 1072.91 427.097C1073.14 425.969 1072.42 423.822 1072.25 422.03C1069.73 396.558 1068.76 367.038 1078.23 336.669C1058.13 338.075 1027.67 399.369 1006.35 437.261Z"   fill="#B9D5E8" >
</path>
<path d="M1006.35 437.261C998.642 427.56 990.208 418.431 982.685 408.869C980.151 405.641 978.035 402.011 975.038 399.107C966.295 403.911 956.95 407.741 948.562 413.102C953.459 428.472 959.607 443.332 967.299 458.779C970.852 465.915 974.513 473.083 979.395 479.911C984.168 486.599 989.806 493.597 997.174 497.644C1005.02 501.954 1011.46 499.745 1017.33 496.733C1028.62 490.94 1036.38 481.764 1044.21 471.693C1049.51 464.896 1054.34 458.64 1059.3 450.731C1062.61 445.463 1066.18 438.852 1069.5 433.075C1070.7 430.974 1072.6 428.595 1072.91 427.097C1073.14 425.969 1072.42 423.822 1072.25 422.03C1069.73 396.558 1068.76 367.038 1078.23 336.669C1058.13 338.075 1027.67 399.369 1006.35 437.261Z"   fill="#FFFFFF" opacity="0.38">
</path>
<path d="M1020.19 453.558C1021.97 452.306 1013.55 438.126 1009.52 431.638C1008.7 433.106 1007.12 435.67 1006.35 437.261C1010.83 442.467 1018.78 454.546 1020.19 453.558Z"   fill="#1A4E72" opacity="0.2">
</path>
<path d="M1152.25 339.048C1149.25 322.118 1145.67 305.45 1143.18 288.767C1142.33 282.975 1142.27 276.379 1139.88 271.544C1129.85 251.185 1106.08 252.019 1092.61 263.202C1080 273.707 1069.5 299.735 1085.13 310.517C1088.71 312.989 1095.25 314.425 1104.7 312.185C1105.97 316.279 1107.65 324.111 1108.18 328.42C1108.55 331.402 1108.83 335.82 1110.42 338.152C1112.83 341.689 1113.68 348.285 1115.79 352.502C1121.72 350.355 1128.14 349.629 1134.45 350.463C1141.45 346.324 1148.97 341.149 1152.25 339.048Z"   fill="#FFCAD4" >
</path>
<path d="M1086 251.849C1084.78 252.698 1080.59 250.798 1080.87 252.745C1081.82 259.557 1085.67 262.121 1091.36 262.6C1103.08 263.62 1121 255.556 1122.93 269.937C1123.61 274.942 1122.39 289.432 1125.66 290.127C1128.94 290.853 1129.54 283.361 1133.68 283.485C1135.74 283.546 1137.36 285.431 1137.62 287.269C1138.39 293.062 1133.71 294.452 1129.91 294.313C1129.09 298.824 1127.5 305.358 1130.44 308.185C1135.29 310.285 1139.26 306.053 1142.49 302.407C1146.21 298.206 1149.13 284.967 1149.38 278.541C1149.75 270.401 1145.11 263.233 1137.13 261.704C1137.19 245.145 1123.01 242.874 1106.68 241.283C1098.03 240.433 1090 238.641 1084.14 237.189C1082.54 236.788 1079.57 235.552 1079.01 238.101C1077.53 244.851 1081.89 249.238 1086 251.849Z"   fill="#1A4E72" >
</path>
<path d="M1110.63 284.89L1107.08 285.554L1105.81 287.717C1106.09 288.057 1106.42 288.397 1106.77 288.752C1109.26 291.146 1113.44 291.085 1113.44 291.085C1113 288.15 1111.9 286.188 1110.63 284.89Z"   fill="#FFFFFF" >
</path>
<path d="M1105.8 287.733C1107.53 288.211 1109.35 287.655 1110.22 286.234C1110.42 285.941 1110.54 285.23 1110.63 284.89C1107.61 281.847 1103.53 282.388 1103.53 282.388C1103.53 282.388 1103.45 284.906 1105.8 287.733Z"   fill="#14334F" >
</path>
<path d="M1116.49 288.397L1118.62 287.949C1117.06 280.828 1110.29 276.873 1106 276.348L1105.75 278.511C1108.49 278.866 1115.04 281.816 1116.49 288.397Z"   fill="#1A4E72" >
</path>
<path d="M1092.08 270.88L1089.27 271.281L1087.62 273.506C1087.85 273.799 1088.19 274.17 1088.5 274.463C1090.81 276.688 1094.69 276.626 1094.69 276.626C1094.27 273.907 1093.27 272.085 1092.08 270.88Z"   fill="#FFFFFF" >
</path>
<path d="M1087.6 273.506C1089.21 273.954 1090.88 273.459 1091.7 272.146C1091.88 271.853 1091.99 271.189 1092.08 270.88C1089.27 268.037 1085.47 268.532 1085.47 268.532C1085.47 268.532 1085.42 270.895 1087.6 273.506Z"   fill="#14334F" >
</path>
<path d="M1097.43 274.17L1099.59 273.707C1098.12 267.049 1091.82 263.341 1087.8 262.863L1087.54 265.041C1090.06 265.35 1096.1 268.099 1097.43 274.17Z"   fill="#1A4E72" >
</path>
<path d="M1107.36 323.354C1117.24 317.329 1119.69 306.176 1119.69 306.176C1119.69 306.176 1113.94 309.899 1104.7 312.185L1107.36 323.354Z"   fill="#E24E6A" >
</path>
<path d="M1089.36 284.411C1088.9 285.771 1092.62 289.046 1093.24 288.783C1095 287.995 1100.14 278.171 1098.86 276.966C1098.03 276.147 1089.75 283.346 1089.36 284.411Z"   fill="#E24E6A" >
</path>
<path d="M1098.28 295.502L1097.01 293.711C1093.52 296.167 1088.16 297.202 1084.71 293.572L1083.12 295.085C1087.48 299.642 1094.03 298.499 1098.28 295.502Z"   fill="#E24E6A" >
</path>
<path d="M1102.6 301.28C1103.87 304.137 1107.2 305.42 1110.05 304.153C1112.9 302.871 1114.19 299.534 1112.92 296.692C1111.64 293.834 1108.3 292.552 1105.46 293.834C1102.6 295.101 1101.32 298.453 1102.6 301.28Z"   fill="#E24E6A" >
</path>
<path d="M1086.07 279.731C1085.32 278.047 1083.85 276.935 1082.2 276.549C1080.45 279.885 1079.07 283.423 1078.23 286.991C1079.69 287.794 1081.53 287.933 1083.2 287.207C1086.07 285.91 1087.34 282.589 1086.07 279.731Z"   fill="#E24E6A" >
</path>
<path d="M1132.75 493.319L1066.22 728.641C1097.6 743.068 1150.72 743.717 1150.72 743.717L1146.44 492.809L1132.75 493.319Z"   fill="#B9D5E8" >
</path>
<path d="M1132.75 493.319L1066.22 728.641C1097.6 743.068 1150.72 743.717 1150.72 743.717L1146.44 492.809L1132.75 493.319Z"   fill="#1A4E72" opacity="0.2">
</path>
<path d="M1045.65 742.172C1042.03 753.912 1017.1 889.662 1010.91 911.705C1007.18 914.547 1004.28 916.694 1001.5 918.687C1001.5 918.687 998.225 921.545 996.155 932.481C995.521 935.787 980.043 933.238 981.31 936.698C984.075 944.252 1009.67 936.42 1019.6 930.628C1027.47 926.04 1035.16 917.729 1035.16 917.729C1036.97 912.987 1038 907.874 1039.68 902.498C1053.96 856.806 1066.11 797.427 1062.69 746.528C1057.2 744.953 1051.44 743.516 1045.65 742.172Z"   fill="#FFCAD4" >
</path>
<path d="M985.79 929.763C983.04 931.724 977.402 936.343 978.684 939.803C981.449 947.357 1011.45 939.633 1021.38 933.841C1029.24 929.253 1032.84 923.8 1035.16 917.729C1003.96 929.716 999.522 924.974 1001.41 918.764C996.865 922.024 992.648 924.912 985.79 929.763Z"   fill="#14334F" >
</path>
<path d="M1190.03 753.557C1190.25 749.371 1192.24 737.276 1191.07 732.858C1190.46 730.587 1189.07 731.715 1187.47 731.915C1173.53 733.8 1157.08 734.758 1142.41 737.044C1132.55 787.093 1137.09 847.522 1145.47 894.667C1146.92 902.885 1146.97 911.52 1150.75 918.795C1150.75 918.795 1158.38 923.723 1163.39 926.55C1175.73 933.532 1190.46 942.429 1194.14 936.621C1196.12 933.516 1193.17 932.157 1190.68 929.886C1187.39 926.859 1185.88 920.834 1185.88 920.834C1181.61 916.54 1178.77 913.296 1172.84 907.457C1176.31 854.442 1187.11 807.622 1190.03 753.557Z"   fill="#FFCAD4" >
</path>
<path d="M1185.85 920.803C1181.47 923.8 1171.57 924.541 1150.75 918.733C1152.79 922.672 1155.88 926.21 1160.9 929.021C1173.24 936.003 1195.76 944.963 1199.45 939.154C1201.42 936.05 1196.15 930.581 1193.68 928.311C1190.36 925.267 1187.93 922.904 1185.85 920.803Z"   fill="#14334F" >
</path>
<path d="M1070.24 482.83C1064.66 554.984 1052.85 624.033 1041.34 691.351C1029.81 758.747 1016.07 824.042 998.951 887.005C1013.86 889.121 1030.03 889.878 1047.15 889.615C1066.56 831.936 1080.37 770.981 1094.71 707.478C1107.87 649.211 1118.74 588.442 1126.54 524.893C1127.15 520.042 1127.41 515.3 1130.53 514.728C1137.91 513.385 1137.47 526.02 1137.53 532.524C1137.99 588.967 1136.63 644.546 1136.58 700.959C1136.52 766.007 1135.3 828.738 1135.84 893.446C1149.64 894.914 1163.28 896.536 1176.78 898.312C1193.96 798.632 1199.84 699.384 1200.3 582.758C1200.44 544.124 1195.33 498.957 1191.68 459.057C1191.68 458.594 1191.68 458.115 1191.31 458.068C1150.77 466.147 1110.94 474.89 1070.24 482.83Z"   fill="#1A4E72" >
</path>
<path d="M1087.12 701.037C1070.63 762.547 1050.99 830.175 1030.8 889.538C1036.15 889.662 1041.58 889.708 1047.15 889.615C1066.56 831.936 1080.37 770.981 1094.71 707.478C1107.87 649.211 1118.74 588.442 1126.54 524.893C1126.74 523.317 1126.91 521.742 1127.13 520.336C1113.86 580.657 1102.23 644.655 1087.12 701.037Z"   fill="#14334F" >
</path>
<path d="M1136.57 703.601C1136.48 767.707 1135.3 829.619 1135.84 893.446C1139.18 893.802 1142.49 894.172 1145.81 894.559C1145.36 831.581 1146.5 770.348 1146.58 706.937C1146.58 706.119 1146.58 705.3 1146.58 704.497C1146.07 704.543 1145.54 704.62 1145.02 704.636C1142.1 704.728 1139.26 704.358 1136.57 703.601Z"   fill="#14334F" >
</path>
<path d="M1183.84 339.975C1174.29 336.02 1162.77 332.885 1150.46 330.228C1150.46 330.228 1153.22 335.619 1152.6 337.318C1152.06 338.832 1146.69 340.176 1146.69 340.176C1142.89 345.876 1136.92 350.433 1129.59 349.892C1124.35 349.49 1120.16 348.131 1116.26 344.547C1114.56 343.002 1113.34 341.473 1112.29 339.434C1112.29 339.434 1106.28 339.882 1105.64 336.36C1105.61 336.221 1108.18 328.42 1108.18 328.42C1099.39 330.181 1089.44 333.039 1082.33 335.356C1084.45 341.18 1076.45 413.133 1068.29 418.477C1067.97 451.441 1068.34 485.363 1068.14 500.471C1113.29 491.465 1157.19 482.444 1201.71 472.867C1199.53 457.528 1194.3 344.315 1183.84 339.975Z"   fill="#14334F" >
</path>
<path d="M1110.4 337.58C1109.31 335.171 1108.19 333.549 1107.73 331C1107.7 330.846 1107.68 329.023 1107.65 328.868C1096.95 330.923 1080.77 335.372 1078.33 336.314C1057.14 362.141 1061.94 466.611 1059.43 488.19C1056.23 515.64 1049.52 541.637 1042.23 566.229C1034.66 591.779 1027.96 616.293 1020.84 640.329C1013.61 664.751 1005.7 688.602 998.286 713.379C1000.33 715.928 1003.71 716.345 1006.6 717.519C1026.23 725.551 1049.45 732.611 1074.63 735.067C1081.7 709.965 1086.44 683.458 1090.68 656.333C1101.21 589.045 1110.49 519.038 1115.68 445.788C1116.47 434.805 1116.94 424.115 1117.46 412.376C1117.62 408.776 1118.31 404.976 1118.19 401.624C1117.96 395.847 1116.13 389.637 1115.3 383.567C1113.66 371.518 1111.82 359.114 1110.97 345.937C1110.76 342.4 1110.36 340.593 1110.4 337.58Z"   fill="#B9D5E8" >
</path>
<path d="M1206.36 491.789C1203.08 459.505 1201 375.04 1186.54 340.454C1171.31 334.754 1156.03 331.34 1150.46 330.197C1151.37 334.136 1149.75 337.982 1147.26 339.759C1146.93 343.08 1146.59 345.906 1146.33 347.637C1143.98 363.702 1141.5 376.662 1137.93 391.646C1137.25 394.488 1136.24 397.361 1136 399.863C1135.32 406.815 1136.08 414.322 1136.04 421.706C1135.63 526.947 1135.23 641.534 1134.76 745.509C1158.4 748.969 1193.65 749.463 1217.23 742.157C1217.48 709.115 1217.06 675.487 1215.84 641.812C1214.05 592.134 1211.3 540.556 1206.36 491.789Z"   fill="#B9D5E8" >
</path>
<path d="M1063.15 519.811L1057.06 543.414L1072.7 559.541L1096.33 552.79L1100.82 528.461L1063.15 519.811Z"   fill="#FFFFFF" opacity="0.38">
</path>
<path d="M1155.68 553.346L1178.28 562.939L1195.79 548.851L1192.63 524.676L1154.19 528.646L1155.68 553.346Z"   fill="#FFFFFF" opacity="0.38">
</path>
<path d="M1099.42 340.423C1106.69 377.82 1118.05 453.172 1118.05 453.172L1128.43 453.156C1128.43 453.156 1148.96 381.698 1158.33 346.2C1156.77 345.829 1155.11 345.335 1152.09 344.733C1143.58 375.889 1123.69 445.124 1123.69 445.124L1105.71 339.681C1101.57 340.083 1103.42 339.898 1099.42 340.423Z"   fill="#E24E6A" >
</path>
<path d="M1102.45 479.339L1140.43 481.239C1142.7 481.363 1144.63 479.617 1144.74 477.346L1145.87 455.102C1145.98 452.832 1144.23 450.901 1141.96 450.793L1103.98 448.877C1101.71 448.769 1099.77 450.515 1099.65 452.785L1098.54 475.014C1098.43 477.269 1100.16 479.215 1102.45 479.339Z"   fill="#FFFFFF" >
</path>
<path d="M1128.95 453.712C1129 452.863 1128.35 452.137 1127.5 452.09L1119.25 451.611C1118.4 451.565 1117.68 452.214 1117.63 453.063C1117.58 453.913 1118.23 454.639 1119.08 454.685L1127.33 455.164C1127.38 455.164 1127.42 455.164 1127.49 455.164C1128.26 455.133 1128.91 454.515 1128.95 453.712Z"   fill="#E24E6A" >
</path>
<path d="M1125.17 475.493L1138.1 476.234C1139.26 476.296 1140.26 475.4 1140.34 474.241L1141.05 461.312C1141.13 460.138 1140.23 459.15 1139.07 459.088L1126.14 458.346C1124.98 458.285 1123.96 459.165 1123.92 460.354L1123.18 473.268C1123.11 474.442 1124.01 475.431 1125.17 475.493Z"   fill="#1A4E72" >
</path>
<path d="M1120.66 460.972L1103.65 460.123L1103.62 460.895L1120.61 461.745L1120.66 460.972Z"   fill="#1A4E72" >
</path>
<path d="M1121.45 461.791L1121.49 461.019C1121.51 460.802 1121.43 460.571 1121.28 460.416C1121.14 460.246 1120.92 460.154 1120.71 460.138L1103.7 459.289C1103.47 459.273 1103.27 459.35 1103.1 459.505C1102.94 459.659 1102.83 459.86 1102.83 460.076L1102.79 460.849C1102.77 461.297 1103.13 461.683 1103.57 461.714L1120.58 462.563C1120.6 462.563 1120.61 462.563 1120.61 462.563C1121.06 462.563 1121.43 462.224 1121.45 461.791Z"   fill="#1A4E72" >
</path>
<path d="M1120.27 466.688L1120.3 465.915L1103.31 465.066L1103.27 465.823L1120.27 466.688Z"   fill="#1A4E72" >
</path>
<path d="M1121.12 466.703L1121.17 465.931C1121.18 465.715 1121.09 465.498 1120.95 465.344C1120.81 465.174 1120.6 465.081 1120.38 465.05L1103.36 464.216C1103.14 464.216 1102.93 464.278 1102.77 464.433C1102.6 464.572 1102.51 464.772 1102.49 465.004L1102.46 465.776C1102.45 466.224 1102.8 466.611 1103.25 466.641L1120.26 467.491C1120.27 467.491 1120.27 467.491 1120.29 467.491C1120.74 467.491 1121.09 467.151 1121.12 466.703Z"   fill="#1A4E72" >
</path>
<path d="M1119.87 471.059L1103.25 470.272L1103.2 471.044L1119.82 471.847L1119.87 471.059Z"   fill="#1A4E72" >
</path>
<path d="M1120.66 471.878L1120.71 471.106C1120.72 470.889 1120.64 470.673 1120.49 470.503C1120.35 470.333 1120.15 470.241 1119.92 470.241L1103.28 469.453C1102.83 469.407 1102.43 469.777 1102.42 470.241L1102.37 471.013C1102.35 471.229 1102.43 471.446 1102.59 471.615C1102.74 471.77 1102.94 471.863 1103.16 471.878L1119.79 472.666C1119.81 472.666 1119.82 472.666 1119.82 472.666C1120.27 472.666 1120.64 472.326 1120.66 471.878Z"   fill="#1A4E72" >
</path>
<path d="M1150.47 330.15C1149.95 333.441 1148.85 336.963 1147.04 339.681C1146.92 339.851 1146.81 340.006 1146.69 340.176C1142.69 365.092 1135.74 397.33 1136.09 399.168C1139.52 399.029 1146.86 398.751 1151.03 395.615C1152.08 391.568 1152.19 387.15 1152.42 382.594C1152.63 378.207 1151.97 373.078 1153.81 369.942C1156.77 364.891 1165.41 367.007 1167.94 361.292C1165.63 350.726 1162.2 341.473 1158.81 332.066C1156.03 331.386 1153.04 330.66 1150.47 330.15Z"   fill="#B9D5E8" >
</path>
<path d="M1108.24 328.837C1108.21 328.652 1108.19 328.498 1108.16 328.328C1105.72 328.729 1103 329.316 1100.47 329.826C1096.75 339.125 1093.01 348.239 1090.34 358.743C1092.67 364.536 1101.38 362.713 1104.18 367.872C1105.91 371.07 1102.66 389.251 1103.57 393.329C1107.65 396.604 1114.63 398.195 1118.05 398.427C1118.47 396.62 1114.87 364.459 1112.27 339.434C1112.19 339.28 1112.1 339.141 1112.04 339.002C1110.42 335.85 1108.89 332.359 1108.24 328.837Z"   fill="#B9D5E8" >
</path>
<path d="M1150.47 330.15C1149.95 333.441 1148.85 336.963 1147.04 339.681C1146.92 339.851 1146.81 340.006 1146.69 340.176C1142.69 365.092 1135.74 397.33 1136.09 399.168C1139.52 399.029 1146.86 398.751 1151.03 395.615C1152.08 391.568 1152.19 387.15 1152.42 382.594C1152.63 378.207 1151.97 373.078 1153.81 369.942C1156.77 364.891 1165.41 367.007 1167.94 361.292C1165.63 350.726 1162.2 341.473 1158.81 332.066C1156.03 331.386 1153.04 330.66 1150.47 330.15Z"   fill="#FFFFFF" opacity="0.38">
</path>
<path d="M1108.24 328.837C1108.21 328.652 1108.19 328.498 1108.16 328.328C1105.72 328.729 1103 329.316 1100.47 329.826C1096.75 339.125 1093.01 348.239 1090.34 358.743C1092.67 364.536 1101.38 362.713 1104.18 367.872C1105.91 371.07 1102.66 389.251 1103.57 393.329C1107.65 396.604 1114.63 398.195 1118.05 398.427C1118.47 396.62 1114.87 364.459 1112.27 339.434C1112.19 339.28 1112.1 339.141 1112.04 339.002C1110.42 335.85 1108.89 332.359 1108.24 328.837Z"   fill="#FFFFFF" opacity="0.38">
</path>
<path d="M1297.98 678.437C1300.4 676.954 1300.15 672.923 1300.22 670.189C1300.23 668.613 1300.14 667.053 1300.14 665.539C1300.15 663.948 1300.36 662.419 1300.4 661.028C1300.71 652.038 1300.25 642.492 1300.09 633.208C1299.97 627.014 1299.41 620.928 1298.8 614.208C1298.55 611.613 1298.32 606.963 1296.76 604.307C1295.07 601.402 1291.5 601.047 1287.94 600.877C1280.97 600.553 1273.11 600.877 1266.16 601.001C1251.47 601.263 1237.15 601.742 1222.47 601.572C1210.5 601.433 1198.62 601.85 1186.11 601.989C1184.42 602.005 1180.81 601.557 1179.23 602.19C1179.31 602.576 1179.31 602.993 1179.34 603.349C1179.42 604.245 1179.42 605.187 1179.44 606.037C1179.57 611.536 1179.45 616.772 1179.51 622.117C1179.59 629.146 1179.51 636.298 1179.62 643.527C1179.73 650.447 1175.96 679.194 1181.57 682.793C1182.23 683.102 1182.91 683.35 1183.59 683.52C1187.44 684.508 1191.28 684.091 1196.15 683.689C1201.25 683.288 1206.36 682.716 1211.07 682.253C1221.25 681.233 1230.44 681.002 1240.36 680.337C1250.37 679.658 1259.45 679.812 1269.06 679.936C1273.63 680.013 1278.36 680.183 1283.33 679.92C1285.62 679.797 1288.03 679.488 1290.67 679.364C1293.06 679.256 1296.48 679.349 1297.98 678.437Z"   fill="#F6BD4A" >
</path>
<path d="M1185.61 606.5C1187.84 606.794 1193.83 607.18 1197.91 607.149C1202.13 607.118 1206.34 607.041 1210.56 606.809C1227.38 605.898 1244.42 605.681 1261.1 606.037C1268.29 606.191 1275.55 606.253 1282.9 606.222C1284.63 606.222 1285.74 606.423 1287.81 605.99C1288.32 605.882 1289.19 606.114 1289.22 605.465C1289.31 604.229 1287.41 604.461 1286.62 604.384C1283.52 604.121 1280.32 604.167 1277.08 604.013C1256.11 602.963 1234.54 602.839 1212.04 604.492C1204.61 605.048 1196.64 605.434 1189.01 605.357C1187.7 605.341 1186.26 605.233 1185.77 605.697C1185.61 605.851 1185.49 606.021 1185.52 606.237C1185.54 606.315 1185.52 606.469 1185.61 606.5Z"   fill="#FFFFFF" >
</path>
<path d="M1201.56 661.399C1202.5 662.434 1205.17 661.955 1206.9 661.847C1210.58 661.646 1214.44 661.507 1218.21 661.507C1219.94 661.507 1222.59 661.569 1223.8 660.441C1225.19 659.144 1224.45 654.201 1224.32 652.193C1224 646.029 1223.8 641.117 1223.92 635.185C1223.94 633.98 1223.92 632.498 1223.88 630.922C1223.83 629.439 1223.8 627.663 1222.86 626.504C1221.88 625.268 1219.69 625.407 1218.02 625.33C1215.92 625.253 1214.31 625.191 1212.77 625.222C1210.13 625.268 1207.63 625.361 1204.58 625.577C1203.58 625.639 1202.36 625.716 1201.68 626.133C1199.96 627.215 1200.07 631.895 1200.01 633.78C1199.81 639.449 1200.03 645.056 1200.26 650.71C1200.37 653.537 1200.12 656.41 1200.81 659.468C1200.81 659.499 1201.06 660.889 1201.56 661.399Z"   fill="#FFFFFF" >
</path>
<path d="M1207.44 632.158C1207.36 635.711 1207.35 638.707 1207.33 642.214C1207.3 647.559 1207.16 651.204 1207.29 655.607C1207.3 655.946 1208.15 657.398 1209.22 656.95C1210.05 656.611 1209.8 654.618 1209.8 653.629C1209.79 646.678 1209.57 639.526 1209.82 632.575C1209.85 631.463 1210.27 630.134 1209.42 629.084C1207.44 628.389 1207.49 630.196 1207.44 632.158Z"   fill="#B9D5E8" >
</path>
<path d="M1215.77 656.719C1216.76 656.363 1216.37 654.757 1216.37 653.49C1216.35 646.477 1216.29 639.959 1216.54 633.162C1216.57 632.065 1216.96 630.505 1216.55 629.779C1216.25 629.207 1215.18 628.837 1214.65 629.192C1214.1 629.563 1214.21 634.83 1214.19 635.602C1214.1 642.167 1214.61 649.072 1214.28 655.174C1214.27 655.267 1214.22 655.313 1214.25 655.468C1214.44 656.302 1215.04 656.95 1215.77 656.719Z"   fill="#B9D5E8" >
</path>
<path d="M1185.29 668.489C1187.99 668.134 1187.21 659.499 1185.12 657.522C1184.59 657.012 1184.1 656.889 1182.83 657.275C1181.27 659.128 1181.97 668.937 1185.29 668.489Z"   fill="#FFFFFF" >
</path>
<path d="M1185.77 679.843C1186.94 679.673 1187.16 678.824 1187.34 677.325C1187.61 675.101 1187.31 672.737 1185.17 672.784C1182.09 672.83 1182.97 680.26 1185.77 679.843Z"   fill="#FFFFFF" >
</path>
<path d="M1242.74 640.376C1246.4 640.036 1243.22 629.532 1243.36 626.628C1245.01 630.412 1246.78 638.584 1248.85 638.723C1251.19 638.908 1251.36 634.398 1251.19 631.447C1251.02 628.296 1250.08 625.284 1250.01 623.523C1251.39 626.319 1253.04 632.467 1255.79 631.849C1258.48 631.231 1256.33 624.403 1256.07 621.638C1255.71 617.977 1255.02 613.451 1255.42 611.072C1255.73 609.265 1257.64 607.133 1259.47 605.094C1264.19 599.765 1267.79 592.551 1267.68 584.967L1246.35 587.933C1244.45 591.377 1241.67 593.586 1237.79 596.367C1235.28 598.159 1231.2 600.306 1229.73 603.21C1227.52 607.581 1227.43 618.255 1229.1 625.917C1229.79 629.084 1232.03 637.781 1234.26 637.719C1238.03 637.641 1235.93 629.13 1235.97 626.365C1237.84 629.563 1239.35 640.669 1242.74 640.376Z"   fill="#FFCAD4" >
</path>
<path d="M1244.14 630.18C1243.4 624.357 1241.97 618.055 1241.78 614.363C1239.83 619.476 1243.99 631.061 1243.09 636.9C1242.92 638.074 1242.48 639.294 1241.35 639.82C1245.67 643.141 1244.62 633.919 1244.14 630.18Z"   fill="#E24E6A" >
</path>
<path d="M1235.18 637.533C1237.21 636.746 1236.51 630.366 1236.13 627.462C1235.37 621.623 1233.65 615.197 1233.47 611.505C1231.54 616.602 1235.68 628.203 1234.78 634.042C1234.61 635.232 1234.16 636.452 1233.05 636.977C1234.03 638.12 1234.64 637.734 1235.18 637.533Z"   fill="#E24E6A" >
</path>
<path d="M1257.18 622.797C1257.03 620.959 1256.73 618.997 1256.45 617.035C1256.19 615.089 1255.54 612.833 1255.74 611.273C1256.08 608.693 1260.46 604.971 1262 602.576C1265.29 597.386 1267.64 591.547 1267.68 584.967C1260.58 585.724 1253.89 586.48 1246.35 587.933C1247.17 588.967 1252.59 590.033 1256.59 589.215C1259.81 588.581 1262.36 587.824 1264.36 586.527C1263.47 592.968 1261.17 599.302 1258.05 605.141C1256.49 608.06 1254.76 609.45 1255.03 613.127C1255.48 618.935 1257.75 629.98 1255.37 631.895C1258 632.142 1257.41 626.041 1257.18 622.797Z"   fill="#E24E6A" >
</path>
<path d="M1251.43 635.062C1252.19 628.296 1248.16 620.958 1248.73 611.412C1247.93 612.725 1247.96 613.868 1247.96 615.537C1247.94 619.924 1249.55 627.292 1249.91 632.019C1250.08 634.181 1249.92 636.622 1247.14 636.885C1249.61 641.735 1251.2 636.931 1251.43 635.062Z"   fill="#E24E6A" >
</path>
<path d="M1270.82 471.677C1267.87 461.019 1262.9 451.642 1257.52 441.988C1247.59 424.177 1236.98 406.228 1226.44 388.293C1221.41 379.736 1216.03 370.993 1210.07 362.311C1203.89 353.306 1197.55 343.141 1186.26 340.423L1187.98 346.076C1191.41 355.916 1197.72 381.157 1202.78 443.007C1207.6 450.638 1215.69 464.711 1220.79 472.141C1221.99 473.871 1225.22 477.964 1225.61 479.648C1226.04 481.471 1225.92 484.205 1226.04 486.429C1227.82 521.201 1233.16 555.864 1238.07 588.612C1250.23 588.041 1262.93 587.176 1275.08 585.291C1275.47 573.659 1276.01 561.178 1276.12 548.558C1276.23 535.814 1276.26 522.746 1275.66 510.357C1274.99 496.594 1274.02 483.232 1270.82 471.677Z"   fill="#B9D5E8" >
</path>
<path d="M1270.82 471.677C1267.87 461.019 1262.9 451.642 1257.52 441.988C1247.59 424.177 1236.98 406.228 1226.44 388.293C1221.41 379.736 1216.03 370.993 1210.07 362.311C1203.89 353.306 1197.55 343.141 1186.26 340.423L1187.98 346.076C1191.41 355.916 1197.72 381.157 1202.78 443.007C1207.6 450.638 1215.69 464.711 1220.79 472.141C1221.99 473.871 1225.22 477.964 1225.61 479.648C1226.04 481.471 1225.92 484.205 1226.04 486.429C1227.82 521.201 1233.16 555.864 1238.07 588.612C1250.23 588.041 1262.93 587.176 1275.08 585.291C1275.47 573.659 1276.01 561.178 1276.12 548.558C1276.23 535.814 1276.26 522.746 1275.66 510.357C1274.99 496.594 1274.02 483.232 1270.82 471.677Z"   fill="#FFFFFF" opacity="0.38">
</path>
<path d="M1225.64 479.741C1225.98 481.471 1225.95 483.602 1226.01 485.873C1231 483.433 1242.12 478.798 1242.07 477.748C1241.93 475.585 1230.5 478.474 1225.64 479.741Z"   fill="#1A4E72" opacity="0.2">
</path>
<path d="M984.152 477.748C984.786 480.884 990.609 488.252 993.668 484.189C996.278 480.729 985.373 471.507 984.214 477.207C984.168 477.408 984.106 477.563 984.152 477.748Z"   fill="#FFFFFF" >
</path>
<path d="M1003.18 496.146C1006.8 492.886 997.19 485.641 995.63 490.09C994.533 493.164 1000.43 498.617 1003.18 496.146Z"   fill="#FFFFFF" >
</path>
<path d="M1172.39 353.445C1171.02 356.148 1175.81 360.334 1178.4 361.554C1184.18 360.473 1175.02 348.285 1172.39 353.445Z"   fill="#FFFFFF" >
</path>
<path d="M1183.33 365.911C1181.86 368.83 1185.46 374.345 1186.46 376.801C1187.68 379.782 1188.66 385.961 1192.26 386.409C1197.4 387.073 1194.51 378.145 1193.38 375.117C1192.78 373.511 1192.04 371.981 1191.45 370.653C1190.48 368.367 1190.11 366.266 1188.05 365.03C1186.99 364.397 1184.44 363.671 1183.33 365.911Z"   fill="#FFFFFF" >
</path>
<path d="M1170.28 751.472C1167.56 752.8 1168.87 759.025 1170.2 761.574C1175.48 764.169 1175.48 748.907 1170.28 751.472Z"   fill="#FFFFFF" >
</path>
<path d="M1171.53 768.015C1168.59 769.467 1168.16 776.033 1167.48 778.597C1166.66 781.717 1163.73 787.232 1166.34 789.765C1170.04 793.38 1173.1 784.498 1174.01 781.408C1174.51 779.755 1174.83 778.102 1175.17 776.697C1175.76 774.272 1176.73 772.372 1175.82 770.147C1175.36 769.004 1173.77 766.888 1171.53 768.015Z"   fill="#FFFFFF" >
</path>
<path d="M1059.77 379.473C1057.68 382.3 1055.49 388.263 1054.55 393.345C1054.24 394.967 1053.42 399.462 1056.01 400.018C1058.18 400.466 1059.5 396.712 1060.28 394.395C1062.08 388.942 1063.61 383.304 1062.62 379.983C1061.9 379.396 1060.48 379.072 1059.77 379.473Z"   fill="#FFFFFF" >
</path>
<path d="M1063.12 407.494C1061.62 410.12 1062.69 416.33 1064.6 416.917C1069.03 418.276 1071.31 406.289 1065.73 406.181C1064.76 406.166 1063.66 406.552 1063.12 407.494Z"   fill="#FFFFFF" >
</path>
<path d="M1055.55 425.506C1055.86 427.885 1057.2 429.769 1058.35 430.016C1060.94 430.588 1061.51 426.077 1061.26 423.776C1060.96 420.933 1059.63 418.385 1057.65 418.554C1055.1 418.786 1055.16 422.741 1055.55 425.506Z"   fill="#FFFFFF" >
</path>
<path d="M1037.66 711.201C1035.24 707.494 1022.28 703.91 1020.98 707.926C1019.4 712.869 1034.17 716.607 1037.43 714.769C1038.37 712.931 1038.28 712.159 1037.66 711.201Z"   fill="#FFFFFF" >
</path>
<path d="M1017.3 698.179C1017.26 701.176 1024.56 703.338 1024.55 698.302C1024.55 693.869 1017.36 694.116 1017.3 698.179Z"   fill="#FFFFFF" >
</path>
<path d="M1008.06 702.411C1005.7 702.272 1004.37 702.365 1003.79 704.126C1002.38 708.266 1013.49 711.649 1014.41 706.953C1015.05 703.678 1011.54 702.612 1008.06 702.411Z"   fill="#FFFFFF" >
</path>
<path d="M1024.64 773.978C1024.24 777.052 1025.27 779.879 1026.63 780.574C1029.68 782.15 1031.91 776.712 1032.39 773.746C1032.97 770.085 1032.15 766.44 1029.63 765.992C1026.37 765.42 1025.1 770.394 1024.64 773.978Z"   fill="#FFFFFF" >
</path>
<path d="M230.911 749.42C217.447 747.331 202.358 746.449 189.574 744.731C188.104 744.53 186.835 743.493 186.278 745.582C185.21 749.637 187.021 760.733 187.222 764.571C189.915 814.157 199.82 857.088 202.992 905.683L201.228 907.417L197.39 917.445L200.764 923.465L218.546 917.956L225.85 907.85L228.095 893.968C235.786 850.743 239.949 795.323 230.911 749.42Z"   fill="#FFCAD4" >
</path>
<path d="M222.539 927.861C223.808 921.129 224.829 914.52 225.85 907.85C218.809 912.895 211.52 918.869 201.429 919.318C198.334 916.346 200.624 911.827 201.228 907.417C193.706 914.721 186.077 921.531 177.534 929.393C175.259 931.482 170.755 936.311 172.241 939.329C173.82 942.532 181.48 940.954 184.637 940.071C196.817 936.682 206.768 931.111 215.079 924.611C215.296 929.377 214.878 934.779 218.05 936.558C221.703 935.459 221.997 930.755 222.539 927.861Z"   fill="#14334F" >
</path>
<path d="M329.092 914.629L331.522 918.714L345.899 928.96L362.567 926.607L353.452 911.085L351.486 909.583C350.341 891.167 322.948 764.896 319.636 754.125C314.312 755.363 309.035 756.663 304.005 758.133C300.848 804.794 312.022 859.239 325.099 901.149L329.092 914.629Z"   fill="#FFCAD4" >
</path>
<path d="M341.891 929.888C350.96 935.289 361.546 939.561 374.066 941.387C377.301 941.851 385.1 942.455 386.261 939.081C387.345 935.877 382.268 931.668 379.73 929.873C370.29 923.171 361.84 917.383 353.452 911.084C354.612 915.387 357.46 919.581 354.767 922.924C344.692 923.759 336.722 918.745 329.092 914.629C330.949 921.129 332.791 927.551 334.911 934.067C335.824 936.868 336.706 941.495 340.452 942.13C343.377 939.963 342.278 934.639 341.891 929.888Z"   fill="#14334F" >
</path>
<path d="M186.402 494.527C183.059 531.098 178.354 572.527 178.493 607.937C178.911 714.893 184.312 805.893 200.067 897.311C212.448 895.67 224.953 894.169 237.612 892.838C238.092 833.502 236.993 775.977 236.931 716.332C236.87 664.611 235.631 613.632 236.065 561.864C236.111 555.921 235.709 544.33 242.472 545.568C245.35 546.079 245.567 550.427 246.124 554.885C253.274 613.152 263.256 668.882 275.328 722.306C288.467 780.543 301.127 836.427 318.94 889.34C334.633 889.573 349.459 888.876 363.14 886.942C347.431 829.2 334.834 769.323 324.264 707.526C313.709 645.792 302.875 582.463 297.753 516.302C260.44 509.029 223.916 501.012 186.742 493.599C186.386 493.645 186.386 494.079 186.402 494.527Z"   fill="#FF8C9C" >
</path>
<path d="M246.124 554.885C253.29 613.152 263.256 668.882 275.328 722.306C288.467 780.543 301.127 836.427 318.94 889.34C324.031 889.418 329.03 889.371 333.936 889.248C315.411 834.818 297.397 772.805 282.277 716.394C268.425 664.704 257.762 606.033 245.583 550.706C245.784 551.99 245.939 553.43 246.124 554.885Z"   fill="#E24E6A" >
</path>
<path d="M228.466 893.859C231.515 893.519 234.533 893.163 237.597 892.838C238.092 834.307 236.854 742.951 236.761 684.157C234.3 684.854 223.653 650.419 223.653 650.419C223.715 708.563 228.868 836.118 228.466 893.859Z"   fill="#E24E6A" >
</path>
<path d="M291.609 320.854C291.346 313.208 290.618 305.315 285.821 300.843C282.462 297.701 277.061 294.838 272.79 293.848C256.54 290.056 243.524 299.806 240.321 313.765C238.046 323.748 240.847 330.774 244.05 336.206C245.041 337.877 246.65 339.765 246.867 341.375C247.037 342.582 244.793 360.442 244.623 364.883C245.598 368.799 252.098 375.825 256.091 376.877C263.086 378.704 269.803 377.729 271.335 374.865C272.031 373.55 275.312 355.505 275.312 355.505C291.918 356.186 292.15 337.104 291.609 320.854Z"   fill="#FFCAD4" >
</path>
<path d="M279.305 321.488L282.973 319.151L280.884 316.536C276.303 316.133 273.471 318.935 273.471 318.935C275.622 320.699 277.587 321.38 279.305 321.488Z"   fill="#FFFFFF" >
</path>
<path d="M280.884 316.52C279.383 317.263 278.454 318.749 278.733 320.281C278.779 320.637 279.135 321.21 279.29 321.504C283.298 321.751 285.805 318.826 285.805 318.826C285.805 318.826 284.289 317.015 280.884 316.52Z"   fill="#14334F" >
</path>
<path d="M285.171 314.06L286.13 312.249C282.509 310.407 275.22 309.896 270.267 314.57L271.66 316.04C276.256 311.723 282.865 312.868 285.171 314.06Z"   fill="#14334F" >
</path>
<path d="M299.347 331.61C299.842 329.319 296.654 325.976 295.4 323.717C293.59 320.498 293.017 316.814 290.866 316.087C286.734 314.679 287.353 331.563 291.284 333.915C294.72 334.844 298.898 333.776 299.347 331.61Z"   fill="#E24E6A" >
</path>
<path d="M273.347 333.467C276.225 333.621 278.671 331.362 278.826 328.483C278.965 325.605 276.736 323.129 273.858 322.989C270.964 322.865 268.518 325.094 268.364 327.973C268.224 330.882 270.453 333.312 273.347 333.467Z"   fill="#E24E6A" >
</path>
<path d="M281.333 346.915C283.67 346.745 287.554 345.229 288.018 342.644C288.823 338.14 284.552 338.558 280.822 338.11C277.216 337.676 271.691 333.823 270.375 337.862C268.797 342.675 274.864 347.302 281.333 346.915Z"   fill="#FFFFFF" >
</path>
<path d="M261.012 349.407C261.012 349.407 263.442 361.37 273.811 363.552L275.312 355.505C266.816 354.731 261.012 349.407 261.012 349.407Z"   fill="#E24E6A" >
</path>
<path d="M199.231 371.275C190.1 373.565 181.774 379.152 173.912 384.399C158.096 394.938 143.842 406.019 129.836 417.673C123.893 422.641 113.23 430.054 110.15 436.894C105.91 446.335 110.816 456.456 114.375 463.621C121.711 478.401 131.043 491.262 139.215 503.473C149.708 519.135 159.071 534.487 169.687 548.477C171.25 550.536 172.195 553.693 174.377 553.631C177.085 543.695 180.722 534.827 184.235 525.511C185.365 522.462 187.578 518.608 187.516 516.132C187.454 514.167 185.52 511.83 184.235 509.106C176.125 491.835 168.031 475.275 159.38 460.341C164.642 452.989 171.684 445.22 177.658 438.302C179.685 435.981 182.796 432.994 183.755 430.812C184.916 428.165 184.947 424.73 185.628 421.898C189.714 405.091 199.03 390.868 208.61 380.174C210.281 378.317 212.897 376.877 213.764 374.092C210.699 370.718 203.89 370.099 199.231 371.275Z"   fill="#B9D5E8" >
</path>
<path d="M199.231 371.275C190.1 373.565 181.774 379.152 173.912 384.399C158.096 394.938 143.842 406.019 129.836 417.673C123.893 422.641 113.23 430.054 110.15 436.894C105.91 446.335 110.816 456.456 114.375 463.621C121.711 478.401 131.043 491.262 139.215 503.473C149.708 519.135 159.071 534.487 169.687 548.477C171.25 550.536 172.195 553.693 174.377 553.631C177.085 543.695 180.722 534.827 184.235 525.511C185.365 522.462 187.578 518.608 187.516 516.132C187.454 514.167 185.52 511.83 184.235 509.106C176.125 491.835 168.031 475.275 159.38 460.341C164.642 452.989 171.684 445.22 177.658 438.302C179.685 435.981 182.796 432.994 183.755 430.812C184.916 428.165 184.947 424.73 185.628 421.898C189.714 405.091 199.03 390.868 208.61 380.174C210.281 378.317 212.897 376.877 213.764 374.092C210.699 370.718 203.89 370.099 199.231 371.275Z"   fill="#FFFFFF" opacity="0.38">
</path>
<path d="M159.396 460.325C160.541 458.715 161.795 457.075 163.079 455.45C158.096 449.368 152.756 443.502 151.085 444.06C150.42 444.292 154.97 453.19 159.396 460.325Z"   fill="#1A4E72" opacity="0.2">
</path>
<path d="M310.335 463.157C309.128 436.445 310.706 408.248 300.492 390.496C289.102 370.687 253.089 364.992 223.606 370.795C218.174 371.863 213.315 373.318 208.61 375.5C200.361 379.261 192.128 385.188 187.036 392.833C178.958 404.951 177.658 422.021 177.658 440.19C177.658 454.723 180.691 469.487 180.474 483.787C180.227 501.027 174.253 516.798 170.631 534.425C166.948 552.331 166.716 570.871 167.35 591.145C168.558 629.836 174.454 667.892 177.193 702.729C222.554 714.815 285.898 708.439 325.347 695.223C321.664 618.863 313.925 541.993 310.335 463.157Z"   fill="#B9D5E8" >
</path>
<path d="M261.121 580.358C252.98 581.519 243.354 582.448 233.929 581.767C227.212 581.287 220.774 579.244 214.708 579.43C207.527 579.631 202.698 583.113 196.879 583.639C192.236 584.073 184.096 581.627 183.291 586.456C182.486 591.285 190.147 593.498 195.471 593.482C203.921 593.482 209.817 589.35 215.172 588.793C224.272 587.88 234.625 592.321 245.165 591.61C250.473 591.269 256.261 590.263 260.641 588.793C264.247 587.601 271.815 585.698 271.428 580.838C268.642 577.99 264.587 579.879 261.121 580.358Z"   fill="#1A4E72" opacity="0.2">
</path>
<path d="M222.693 369.867C221.641 374.076 219.737 382.418 223.158 384.399C225.495 385.745 231.468 383.13 235.353 382.046C244.886 379.415 252.036 377.93 260.672 375.964C265.315 374.896 272.124 373.829 272.387 371.739C272.728 369.031 267.048 367.143 263.953 366.106C253.243 362.562 241.714 358.801 228.791 358.615C225.727 361.045 224.055 364.465 222.693 369.867Z"   fill="#B9D5E8" >
</path>
<path d="M222.693 369.867C221.641 374.076 219.737 382.418 223.158 384.399C225.495 385.745 231.468 383.13 235.353 382.046C244.886 379.415 252.036 377.93 260.672 375.964C265.315 374.896 272.124 373.829 272.387 371.739C272.728 369.031 267.048 367.143 263.953 366.106C253.243 362.562 241.714 358.801 228.791 358.615C225.727 361.045 224.055 364.465 222.693 369.867Z"   fill="#1A4E72" opacity="0.2">
</path>
<path d="M488.791 397.275C480.325 398.482 468.703 402.97 461.228 407.799C462.59 403.435 464.199 396.764 460.903 395.929C459.696 395.635 458.241 396.207 457.746 396.857C455.687 399.519 454.697 403.713 452.36 407.319C449.868 411.157 447.531 413.695 443.864 416.976C436.899 423.492 430.183 431.911 423.714 437.714C428.093 447.139 432.179 454.413 436.961 463.637C443.523 456.208 449.745 448.842 455.471 441.769C464.06 435.161 476.75 433.257 478.995 427.748C479.722 425.952 479.753 423.646 479.521 422.238C479.521 422.238 483.297 421.248 483.87 418.787C484.365 416.713 483.978 415.986 482.446 414.299C483.993 413.417 484.814 412.86 484.999 411.281C485.216 409.362 482.724 407.644 482.229 407.288C485.046 405.663 487.352 405.307 490.818 403.883C493.356 402.831 498.262 400.742 496.87 398.002C495.802 395.913 491.391 396.904 488.791 397.275Z"   fill="#FFCAD4" >
</path>
<path d="M333.317 420.025C324.155 410.167 314.575 397.863 303.773 388.608C298.558 384.151 290.835 377.729 282.215 381.118C272.465 384.925 263.241 395.789 267.203 410.182C270.546 422.285 277.68 432.22 284.087 441.599C296.762 460.139 310.892 478.958 327.22 495.502C330.779 499.124 335.236 503.287 339.879 507.233C347.168 513.408 351.022 518.779 362.381 517.54C372.627 516.426 384.033 508.533 392.39 503.008C420.139 484.654 440.645 461.377 462.234 438.782C455.997 430.796 449.095 423.476 441.62 416.744C419.117 431.756 396.12 446.257 373.633 461.285C361.437 447.387 347.555 435.346 333.317 420.025Z"   fill="#B9D5E8" >
</path>
<path d="M333.317 420.025C324.155 410.167 314.575 397.863 303.773 388.608C298.558 384.151 290.835 377.729 282.215 381.118C272.465 384.925 263.241 395.789 267.203 410.182C270.546 422.285 277.68 432.22 284.087 441.599C296.762 460.139 310.892 478.958 327.22 495.502C330.779 499.124 335.236 503.287 339.879 507.233C347.168 513.408 351.022 518.779 362.381 517.54C372.627 516.426 384.033 508.533 392.39 503.008C420.139 484.654 440.645 461.377 462.234 438.782C455.997 430.796 449.095 423.476 441.62 416.744C419.117 431.756 396.12 446.257 373.633 461.285C361.437 447.387 347.555 435.346 333.317 420.025Z"   fill="#FFFFFF" opacity="0.38">
</path>
<path d="M378.523 458.05C376.898 459.133 375.258 460.201 373.633 461.269C378.446 467.908 384.512 475.027 384.961 474.517C386.168 473.124 382.423 465.293 378.523 458.05Z"   fill="#1A4E72" opacity="0.2">
</path>
<path d="M245.815 374.154C246.372 369.681 250.953 366.214 253.924 362.655C257.468 358.399 261.833 352.704 262.25 347.179C262.73 341.174 258.753 336.252 259.325 328.592C260.177 317.217 273.3 312.295 279.011 305.78C295.865 311.769 302.581 305.331 301.065 300.054C299.687 295.194 284.645 288.183 281.085 286.481C275.452 283.804 266.924 280.662 263.024 279.996C253.011 278.31 245.583 280.817 240.878 284.237C235.956 287.827 232.614 296.076 226.686 297.392C222.121 298.398 217.184 296.37 213.779 296.68C207.867 297.175 201.924 300.874 198.86 305.3C193.041 313.781 195.703 323.02 188.15 327.617C184.266 329.985 178.849 329.381 174.996 331.362C171.87 332.971 168.635 336.283 167.118 338.883C164.627 343.124 164.704 348.68 162.305 353.57C159.922 358.414 155.666 360.565 154.196 365.069C184.127 379.369 216.565 393.452 246.975 407.087C248.693 407.861 251.371 410.414 252.346 408.867C259.233 394.319 244.499 384.925 245.815 374.154Z"   fill="#14334F" >
</path>
<path d="M252.005 342.66C251.247 344.393 249.699 347.333 251.479 347.937C252.578 348.324 253.893 346.157 254.899 344.006C255.921 341.824 257.283 338.79 255.487 338.264C253.599 337.723 252.624 341.22 252.005 342.66Z"   fill="#FFFFFF" >
</path>
<path d="M252.129 356.48C253.739 357.285 257.004 351.852 254.837 351.171C253.135 350.645 250.473 355.644 252.129 356.48Z"   fill="#FFFFFF" >
</path>
<path d="M245.846 355.102C245.056 356.696 243.633 358.708 244.778 359.513C245.536 360.039 246.31 359.482 246.883 358.863C248.477 357.114 249.792 354.019 249.018 352.58C247.161 351.435 246.635 353.462 245.846 355.102Z"   fill="#FFFFFF" >
</path>
<path d="M174.145 345.538C173.402 347.287 171.854 350.212 173.618 350.815C174.717 351.187 176.033 349.02 177.039 346.884C178.075 344.702 179.422 341.654 177.627 341.143C175.754 340.601 174.779 344.099 174.145 345.538Z"   fill="#FFFFFF" >
</path>
<path d="M167.985 357.996C167.211 359.575 165.772 361.587 166.948 362.392C167.691 362.918 168.465 362.361 169.037 361.757C170.631 359.993 171.947 356.898 171.173 355.458C169.316 354.329 168.805 356.34 167.985 357.996Z"   fill="#FFFFFF" >
</path>
<path d="M318.661 751.463C318.181 755.023 321.695 764.989 326.43 761.786C330.47 759.046 322.236 745.257 318.94 750.906C318.816 751.092 318.692 751.231 318.661 751.463Z"   fill="#FFFFFF" >
</path>
<path d="M332.187 777.989C337.233 775.838 329.649 764.618 326.353 768.781C324.093 771.644 328.365 779.614 332.187 777.989Z"   fill="#FFFFFF" >
</path>
<path d="M196.198 798.48C198.783 795.152 197.962 782.307 193.923 782.4C188.955 782.524 190.224 797.04 192.917 799.408C194.867 799.671 195.533 799.362 196.198 798.48Z"   fill="#FFFFFF" >
</path>
<path d="M201.584 776.024C198.86 776.921 199.185 784.195 203.735 782.601C207.743 781.193 205.267 774.801 201.584 776.024Z"   fill="#FFFFFF" >
</path>
<path d="M194.852 768.998C194.233 766.831 193.737 765.655 191.973 765.67C187.779 765.701 188.212 776.798 192.747 776.163C195.904 775.714 195.765 772.201 194.852 768.998Z"   fill="#FFFFFF" >
</path>
<path d="M186.139 530.231C181.372 526.579 178.277 542.086 184.189 540.507C186.046 538.201 188.63 532.15 186.139 530.231Z"   fill="#FFFFFF" >
</path>
<path d="M176.064 554.885C176.125 556.401 176.125 558.15 176.28 559.93C176.59 563.257 177.89 572.899 182.409 569.989C185.566 567.931 183.693 561.725 183.492 558.382C183.337 555.643 184.22 548.88 181.527 546.79C179.468 545.212 177.425 547.038 176.714 548.106C175.352 550.18 175.955 552.315 176.064 554.885Z"   fill="#FFFFFF" >
</path>
<path d="M276.551 379.307C276.086 381.737 280.791 383.935 283.097 384.321C287.399 382.139 277.433 374.649 276.551 379.307Z"   fill="#FFFFFF" >
</path>
<path d="M287.956 386.612C287.477 389.243 291.547 392.756 292.893 394.458C294.534 396.517 296.701 401.144 299.626 400.695C303.82 400.045 299.517 393.685 297.954 391.564C297.103 390.435 296.174 389.413 295.431 388.5C294.131 386.921 293.373 385.358 291.47 384.848C290.495 384.6 288.343 384.6 287.956 386.612Z"   fill="#FFFFFF" >
</path>
<path d="M112.673 443.146C112.24 446.551 115.614 456.054 120.117 452.989C123.971 450.374 116.093 437.219 112.936 442.605C112.828 442.806 112.704 442.93 112.673 443.146Z"   fill="#FFFFFF" >
</path>
<path d="M125.627 468.435C130.44 466.376 123.197 455.682 120.055 459.66C117.889 462.399 121.99 469.998 125.627 468.435Z"   fill="#FFFFFF" >
</path>
<path d="M345.327 497.576C345.961 500.764 353.823 506.785 355.82 504.386C358.249 501.445 349.196 494.852 346.456 495.208C345.327 496.199 345.156 496.756 345.327 497.576Z"   fill="#FFFFFF" >
</path>
<path d="M355.634 512.062C356.5 510.035 352.105 506.537 350.728 509.988C349.521 513.006 354.489 514.801 355.634 512.062Z"   fill="#FFFFFF" >
</path>
<path d="M363.109 511.721C364.687 512.449 365.616 512.758 366.498 511.737C368.603 509.276 361.948 503.921 360.029 506.862C358.698 508.92 360.787 510.623 363.109 511.721Z"   fill="#FFFFFF" >
</path>
<path d="M766.25 165.45L766.25 325.45L929.25 325.45L929.25 165.45L766.25 165.45Z"   fill="#8DBFFC" >
</path>
<path d="M778.51 179L778.51 315L917.51 315L917.51 179L778.51 179Z"   fill="#FFFFFF" >
</path>
<path d="M562.588 382.313C562.28 386.066 571.579 387.345 571.84 384.216C572.155 380.342 562.934 378.005 562.588 382.313ZM573.922 406.566C582.268 400.842 571.118 389.575 564.885 393.047C556.302 397.827 564.586 412.961 573.922 406.566ZM548.817 400.552C551.161 400.811 552.175 393.793 549.747 393.427C546.35 392.91 544.998 400.126 548.817 400.552ZM558.938 417.3C560.59 415.731 554.45 410.319 552.759 411.933C551.215 413.402 557.04 419.111 558.938 417.3ZM578.341 416.028C575.636 418.03 574.576 420.154 575.444 421.403C576.32 422.651 578.272 421.852 580.977 419.85C583.682 417.848 585.126 415.526 584.258 414.277C583.382 413.029 581.046 414.019 578.341 416.028Z" fill-rule="evenodd"  fill="#6DBCAB" >
</path>
<path d="M560.66 371.487C563.387 370.746 566.743 370.799 570.306 372.007C571.241 372.32 572.176 372.71 573.133 373.192C574.482 373.872 575.831 374.629 577.141 375.44C584.159 379.805 590.672 386.089 594.603 392.931C598.641 399.957 599.989 407.594 596.533 414.444C596.273 414.957 595.989 415.461 595.683 415.95C592.825 420.53 588.151 423.962 582.749 425.965C577.256 428.007 570.996 428.572 565.127 427.387C557.143 425.759 549.373 419.765 544.539 412.663C542.638 409.865 541.183 406.891 540.34 403.932C539.482 400.913 539.252 397.901 539.826 395.087C540.554 391.532 542.546 388.337 546.132 385.913C547.305 385.126 548.193 384.575 548.952 384.117C551.611 382.504 552.408 382.014 554.116 376.961C554.216 376.655 554.346 376.357 554.499 376.059C555.587 373.918 557.786 372.259 560.66 371.487ZM571.869 375.692Q570.628 375.073 569.41 374.66C566.414 373.643 563.625 373.589 561.387 374.193C559.296 374.759 557.733 375.891 557.005 377.32C556.92 377.488 556.844 377.672 556.783 377.863C554.737 383.872 553.741 384.484 550.415 386.502C549.641 386.976 548.722 387.534 547.703 388.222C544.784 390.202 543.159 392.778 542.577 395.645C542.094 397.992 542.301 400.569 543.044 403.176C543.803 405.851 545.128 408.55 546.86 411.096C551.312 417.655 558.43 423.175 565.686 424.65C571.034 425.736 576.758 425.216 581.769 423.351C586.611 421.554 590.771 418.511 593.292 414.475C593.56 414.039 593.806 413.611 594.02 413.191C597.001 407.296 595.752 400.584 592.158 394.33C588.458 387.886 582.305 381.953 575.654 377.817C574.398 377.037 573.133 376.326 571.869 375.692ZM559.434 401.662C559.87 404.108 561.372 406.111 563.226 407.533C564.583 408.611 566.169 409.345 567.655 409.689C567.678 409.689 567.709 409.689 567.732 409.697C567.801 409.704 567.877 409.727 567.939 409.75C568.352 409.834 568.766 409.88 569.157 409.903C569.617 409.926 570.046 409.903 570.444 409.834C570.95 409.743 571.44 410.079 571.532 410.584C571.624 411.088 571.287 411.57 570.781 411.662C570.245 411.761 569.678 411.792 569.088 411.761C568.866 411.746 568.636 411.73 568.406 411.7L568.191 413.221C568.506 413.244 568.82 413.267 569.134 413.267C571.172 413.313 573.126 412.992 574.244 412.281C574.681 412.006 575.263 412.136 575.539 412.571C575.815 413.007 575.685 413.58 575.248 413.856C573.815 414.765 571.478 415.178 569.103 415.125C568.429 415.109 567.755 415.056 567.088 414.964C567.065 414.964 567.042 414.964 567.019 414.957C566.996 414.957 566.973 414.949 566.95 414.941C565.341 414.712 563.816 414.261 562.675 413.603C562.23 413.343 562.077 412.77 562.338 412.327C562.598 411.883 563.165 411.73 563.617 411.99C564.36 412.418 565.31 412.74 566.36 412.954L566.59 411.31C565.05 410.859 563.479 410.079 562.092 409.009C560.116 407.495 558.484 405.4 557.786 402.839L555.886 402.9C556.032 403.481 556.208 404.047 556.43 404.582C556.622 405.056 556.392 405.607 555.917 405.798C555.442 405.989 554.89 405.76 554.698 405.286C553.327 401.907 553.22 397.648 554.637 393.841C555.878 390.516 558.277 387.526 562.008 385.76C562.476 385.539 563.035 385.737 563.249 386.204C563.472 386.67 563.265 387.228 562.805 387.45C559.564 388.986 557.472 391.593 556.384 394.491C555.587 396.616 555.334 398.902 555.557 401.043L557.464 400.982C557.426 400.546 557.419 400.102 557.442 399.651C557.464 399.139 557.901 398.734 558.415 398.764C558.928 398.787 559.334 399.223 559.311 399.735C559.28 400.408 559.326 401.05 559.434 401.662ZM578.405 393.558C578.053 393.115 577.531 392.58 576.888 392.022L578.397 390.661C578.903 391.081 579.363 391.548 579.769 392.052C580.803 393.329 581.546 394.835 581.999 396.448C582.136 396.945 582.65 397.235 583.148 397.098C583.646 396.953 583.937 396.44 583.799 395.943C583.278 394.101 582.42 392.366 581.217 390.882C580.091 389.499 578.658 388.337 576.926 387.526C576.459 387.312 575.899 387.511 575.685 387.977C575.47 388.444 575.67 389.002 576.137 389.216C576.375 389.33 576.612 389.445 576.834 389.575L575.409 390.867C574.421 390.156 573.279 389.483 572.045 388.956C569.05 387.672 565.525 387.259 562.376 389.399C562.177 389.537 561.97 389.69 561.763 389.858C561.357 390.179 561.296 390.76 561.617 391.165C561.939 391.57 562.529 391.632 562.928 391.311C563.089 391.173 563.257 391.051 563.426 390.936C565.931 389.231 568.82 389.606 571.31 390.668C573.9 391.777 576.045 393.604 576.957 394.736C577.034 394.835 577.102 394.927 577.164 395.011C577.455 395.439 578.037 395.546 578.466 395.255C578.895 394.965 579.003 394.384 578.711 393.956C578.627 393.841 578.528 393.711 578.405 393.558ZM583.439 405.981C584.22 403.825 584.535 401.486 584.374 399.2C584.335 398.68 583.891 398.29 583.378 398.329C582.857 398.359 582.466 398.81 582.504 399.323C582.634 401.196 582.412 403.107 581.838 404.888L580.282 403.971C580.719 402.671 580.949 401.272 580.979 399.766C580.987 399.254 580.573 398.833 580.06 398.826C579.547 398.818 579.118 399.231 579.11 399.743C579.087 401.104 578.865 402.373 578.451 403.543C578.39 403.703 578.336 403.864 578.267 404.017L578.259 404.032C577.861 405.003 577.317 405.897 576.627 406.731C576.298 407.128 576.352 407.717 576.75 408.045C577.148 408.374 577.738 408.321 578.068 407.923C578.643 407.227 579.133 406.486 579.539 405.706L581.133 406.639C580.504 407.931 579.669 409.116 578.62 410.11C578.252 410.461 578.236 411.05 578.589 411.425C578.941 411.792 579.531 411.807 579.907 411.455C581.508 409.941 582.688 408.045 583.439 405.981ZM566.674 421.462C565.64 421.462 564.797 420.629 564.797 419.589C564.797 418.557 565.64 417.716 566.674 417.716C567.709 417.716 568.552 418.55 568.552 419.589C568.552 420.621 567.716 421.462 566.674 421.462Z" fill-rule="evenodd"  fill="#6DBCAB" >
</path>
<path d="M588.922 400.057C586.358 400.668 587.67 406.48 589.811 405.968C592.469 405.342 591.885 399.355 588.922 400.057Z"   fill="#6DBCAB" >
</path>
<path d="M639.015 459.624C639.779 459.672 640.551 459.67 641.306 459.779C642.307 459.923 642.964 460.534 643.092 461.455C643.174 462.047 643.132 462.662 643.09 463.263C643.077 463.447 643.062 463.63 643.047 463.813C642.987 464.523 642.927 465.231 643.023 465.944C643.124 466.7 643.381 467.397 643.965 467.907C645.134 468.928 646.516 469.287 648.035 469.053C649.317 468.855 650.363 468.191 651.178 467.204C651.648 466.635 652.035 465.996 652.436 465.374C652.958 464.565 653.462 463.746 654.209 463.116C654.8 462.619 655.335 462.543 655.889 462.893C656.064 463.003 656.233 463.141 656.362 463.302C656.666 463.678 656.963 464.063 657.228 464.467C657.957 465.578 658.915 466.382 660.198 466.783C662.226 467.418 664.211 466.797 665.374 464.936C666.008 463.921 666.087 462.808 665.845 461.667C665.681 460.896 665.459 460.136 665.268 459.371C665.058 458.533 665.024 457.716 665.633 457.01C665.874 456.731 666.13 456.453 666.42 456.227C667.127 455.677 667.872 455.177 668.574 454.621C670.105 453.41 670.912 451.832 670.87 449.86C670.842 448.514 670.398 447.323 669.4 446.39C668.889 445.911 668.341 445.467 667.785 445.04C666.824 444.301 666.43 443.367 666.624 442.157C666.746 441.396 666.848 440.629 666.752 439.846C666.619 438.757 666.224 437.79 665.541 436.94C664.505 435.649 663.093 435.128 661.499 435.092C660.607 435.071 659.711 435.141 658.819 435.21C658.721 435.218 658.624 435.225 658.526 435.233C657.638 435.301 656.883 435.077 656.231 434.447C655.621 433.859 655.008 433.26 654.321 432.772C653.033 431.856 651.568 431.486 649.99 431.693C648.736 431.858 647.667 432.434 646.738 433.281C645.919 434.026 645.274 434.916 644.636 435.809C644.265 436.329 643.816 436.731 643.182 436.858C642.757 436.944 642.321 437.001 641.889 437.009C641.601 437.014 641.314 437.016 641.027 437.017C640.135 437.02 639.245 437.024 638.358 437.158C637.337 437.312 636.347 437.562 635.452 438.09C633.381 439.314 632.836 441.136 633.437 443.319C633.775 444.548 634.636 445.463 635.601 446.263C636.073 446.654 636.586 446.995 637.056 447.389C637.918 448.109 638.008 448.926 637.296 449.798C636.942 450.233 636.524 450.621 636.109 451.002C635.385 451.669 634.606 452.278 633.991 453.058C633.483 453.702 633.1 454.404 633.037 455.241C632.914 456.878 634.141 459.077 636.457 459.508C637.292 459.664 638.156 459.663 639.007 459.733C639.009 459.696 639.012 459.66 639.015 459.624ZM641.087 438.907C640.33 438.952 639.57 438.971 638.817 439.049C637.979 439.135 637.164 439.333 636.429 439.769C635.927 440.067 635.454 440.434 635.28 441.002C635.077 441.666 635.084 442.356 635.397 443.01C635.739 443.725 636.264 444.291 636.872 444.782C637.331 445.152 637.824 445.479 638.275 445.857C639.985 447.286 640.221 449.277 638.826 451.011C638.279 451.691 637.583 452.25 636.959 452.869C636.432 453.391 635.893 453.902 635.394 454.45C635.108 454.764 634.958 455.164 635 455.61C635.086 456.515 635.823 457.392 636.761 457.565C637.414 457.686 638.091 457.706 638.758 457.713C638.991 457.715 639.224 457.713 639.456 457.711L639.457 457.711C640.24 457.703 641.023 457.695 641.797 457.873C643.101 458.171 644.122 458.851 644.718 460.083C645.157 460.99 645.145 461.961 645.087 462.932C645.041 463.697 644.951 464.46 644.927 465.226C644.912 465.719 644.97 466.239 645.41 466.564C646.101 467.074 646.89 467.268 647.74 467.11C648.66 466.939 649.371 466.414 649.905 465.674C650.353 465.054 650.731 464.383 651.149 463.742C651.702 462.892 652.315 462.091 653.133 461.473C653.951 460.857 654.858 460.567 655.88 460.79C656.736 460.977 657.412 461.469 657.953 462.137C658.363 462.645 658.729 463.189 659.115 463.716C659.446 464.167 659.854 464.522 660.373 464.748C660.931 464.991 661.507 465.144 662.114 465.032C663.412 464.792 664.23 463.568 663.958 462.249C663.779 461.383 663.532 460.531 663.332 459.668C663.128 458.784 663.076 457.897 663.402 457.024C663.699 456.227 664.18 455.548 664.832 455.013C665.523 454.445 666.252 453.921 666.974 453.392C667.566 452.958 668.095 452.474 668.454 451.819C669.217 450.426 669.139 448.564 667.68 447.433C667.277 447.121 666.878 446.806 666.482 446.486C665.68 445.837 665.067 445.052 664.785 444.042C664.56 443.239 664.631 442.427 664.742 441.616C664.745 441.588 664.749 441.559 664.753 441.531C664.837 440.92 664.921 440.308 664.766 439.693C664.438 438.391 663.72 437.459 662.353 437.139C661.355 436.905 660.357 437.006 659.359 437.106C659.296 437.112 659.234 437.119 659.172 437.125C658.282 437.213 657.401 437.207 656.542 436.912C655.779 436.65 655.195 436.13 654.628 435.585C654.059 435.037 653.514 434.462 652.797 434.091C651.259 433.295 649.648 433.387 648.278 434.509C647.467 435.173 646.857 436.011 646.271 436.861C645.588 437.851 644.71 438.553 643.521 438.765C642.724 438.907 641.905 438.932 641.096 439.009L641.087 438.907Z" fill-rule="evenodd"  fill="#6DBCAB" >
</path>
<path d="M651.61 438.01C651.618 437.575 651.276 437.213 650.828 437.214C650.373 437.216 650.048 437.583 650.049 437.996C650.05 438.437 650.412 438.78 650.83 438.774C651.255 438.776 651.603 438.435 651.61 438.01ZM644.337 443.568C644.348 442.97 643.879 442.474 643.264 442.476C642.639 442.477 642.193 442.981 642.194 443.548C642.195 444.154 642.692 444.624 643.266 444.617C643.834 444.622 644.326 444.166 644.337 443.568ZM657.416 447.672C657.455 445.569 655.805 443.823 653.642 443.827C651.443 443.832 649.87 445.607 649.874 447.601C649.878 449.733 651.628 451.39 653.649 451.363C655.646 451.383 657.377 449.776 657.416 447.672ZM663.714 447.949C663.714 447.941 663.714 447.932 663.714 447.923C663.711 447.495 663.361 447.15 662.932 447.153C662.477 447.155 662.152 447.522 662.152 447.935C662.153 448.376 662.515 448.719 662.934 448.714C663.359 448.715 663.707 448.374 663.714 447.949ZM643.44 453.299C643.453 452.604 642.907 452.027 642.192 452.028C641.465 452.03 640.946 452.617 640.947 453.276C640.949 453.98 641.527 454.528 642.195 454.519C642.855 454.525 643.427 453.994 643.44 453.299ZM659.735 454.97C659.746 454.372 659.277 453.876 658.663 453.877C658.038 453.879 657.591 454.383 657.592 454.95C657.594 455.556 658.091 456.026 658.665 456.019C659.232 456.024 659.724 455.568 659.735 454.97ZM649.326 456.813C650.155 456.811 650.788 457.481 650.773 458.287C650.758 459.094 650.094 459.709 649.329 459.702C648.554 459.712 647.883 459.077 647.882 458.26C647.88 457.495 648.483 456.815 649.326 456.813Z" fill-rule="evenodd"  fill="#6DBCAB" >
</path>
<path d="M658.385 455.62C658.828 455.954 659.287 455.774 659.349 455.225C659.391 454.859 659.252 454.546 658.972 454.303C658.778 454.134 658.551 454.046 658.305 454.157C658.059 454.269 657.982 454.5 657.972 454.711C657.966 455.064 658.145 455.439 658.385 455.62Z"   fill="#6DBCAB" >
</path>
<path d="M821.69 266.743C823.246 266.84 824.815 266.836 826.353 267.057C828.388 267.35 829.726 268.587 829.985 270.455C830.153 271.655 830.068 272.903 829.983 274.121C829.957 274.493 829.925 274.865 829.894 275.237C829.772 276.675 829.651 278.112 829.846 279.558C830.052 281.089 830.573 282.503 831.763 283.538C834.141 285.607 836.953 286.335 840.045 285.861C842.652 285.46 844.781 284.114 846.439 282.111C847.394 280.957 848.183 279.663 848.999 278.401C850.06 276.762 851.086 275.1 852.606 273.824C853.809 272.815 854.898 272.661 856.024 273.371C856.38 273.595 856.725 273.875 856.988 274.2C857.606 274.963 858.209 275.744 858.749 276.563C860.233 278.815 862.182 280.446 864.792 281.258C868.918 282.545 872.957 281.286 875.323 277.514C876.614 275.455 876.775 273.199 876.283 270.886C875.949 269.322 875.498 267.782 875.107 266.23C874.68 264.532 874.611 262.875 875.85 261.444C876.341 260.877 876.862 260.315 877.452 259.857C878.89 258.741 880.407 257.726 881.835 256.6C884.951 254.144 886.592 250.944 886.507 246.947C886.449 244.217 885.547 241.803 883.517 239.911C882.475 238.94 881.361 238.039 880.229 237.173C878.273 235.676 877.473 233.781 877.868 231.329C878.116 229.785 878.323 228.23 878.128 226.642C877.857 224.435 877.054 222.474 875.664 220.751C873.555 218.134 870.683 217.078 867.439 217.003C865.624 216.961 863.801 217.103 861.985 217.243C861.787 217.259 861.589 217.274 861.391 217.289C859.583 217.427 858.047 216.974 856.72 215.696C855.48 214.504 854.232 213.289 852.835 212.3C850.213 210.444 847.232 209.693 844.021 210.113C841.47 210.448 839.295 211.615 837.404 213.332C835.739 214.843 834.427 216.648 833.127 218.459C832.372 219.511 831.459 220.327 830.169 220.585C829.305 220.758 828.417 220.874 827.537 220.891C826.953 220.902 826.368 220.904 825.784 220.906C823.97 220.914 822.158 220.921 820.353 221.193C818.277 221.506 816.262 222.011 814.441 223.083C810.227 225.565 809.118 229.259 810.34 233.685C811.028 236.177 812.78 238.033 814.744 239.654C815.705 240.447 816.749 241.138 817.706 241.936C819.458 243.396 819.641 245.053 818.194 246.82C817.472 247.703 816.622 248.488 815.778 249.262C814.304 250.614 812.719 251.85 811.469 253.43C810.434 254.737 809.655 256.16 809.527 257.856C809.277 261.176 811.773 265.635 816.486 266.508C818.185 266.824 819.943 266.822 821.674 266.964C821.679 266.89 821.685 266.816 821.69 266.743ZM825.906 224.739C824.366 224.83 822.82 224.868 821.287 225.027C819.583 225.202 817.924 225.604 816.428 226.487C815.406 227.091 814.444 227.834 814.091 228.986C813.678 230.334 813.693 231.733 814.329 233.058C815.026 234.508 816.093 235.656 817.331 236.651C818.264 237.4 819.267 238.065 820.185 238.83C823.664 241.728 824.143 245.765 821.306 249.281C820.194 250.659 818.776 251.793 817.506 253.047C816.434 254.105 815.338 255.141 814.323 256.252C813.741 256.89 813.436 257.699 813.522 258.605C813.697 260.44 815.197 262.218 817.105 262.569C818.433 262.814 819.811 262.854 821.168 262.868C821.642 262.873 822.115 262.868 822.589 262.864C824.184 262.848 825.777 262.833 827.351 263.193C830.005 263.798 832.082 265.176 833.296 267.674C834.189 269.513 834.164 271.481 834.045 273.451C833.952 275.002 833.768 276.549 833.721 278.101C833.69 279.102 833.807 280.156 834.702 280.815C836.108 281.848 837.713 282.241 839.444 281.921C841.316 281.575 842.762 280.51 843.849 279.009C844.76 277.752 845.53 276.393 846.38 275.092C847.506 273.368 848.752 271.745 850.418 270.493C852.081 269.242 853.926 268.655 856.006 269.107C857.748 269.486 859.124 270.485 860.224 271.839C861.059 272.868 861.803 273.971 862.589 275.039C863.263 275.955 864.093 276.674 865.149 277.132C866.283 277.625 867.456 277.936 868.69 277.709C871.331 277.221 872.996 274.739 872.442 272.065C872.078 270.309 871.575 268.581 871.17 266.833C870.754 265.039 870.649 263.241 871.31 261.471C871.916 259.855 872.895 258.48 874.22 257.395C875.627 256.243 877.11 255.181 878.58 254.108C879.785 253.227 880.861 252.246 881.591 250.918C883.144 248.095 882.985 244.319 880.016 242.025C879.197 241.394 878.385 240.755 877.579 240.107C875.947 238.789 874.699 237.197 874.126 235.151C873.669 233.522 873.811 231.877 874.037 230.231C874.045 230.174 874.053 230.116 874.061 230.059C874.232 228.82 874.403 227.58 874.087 226.333C873.418 223.694 871.959 221.804 869.176 221.154C867.147 220.68 865.116 220.884 863.085 221.088C862.958 221.1 862.831 221.113 862.704 221.126C860.894 221.304 859.101 221.293 857.354 220.694C855.8 220.162 854.612 219.109 853.459 218.004C852.3 216.893 851.192 215.727 849.733 214.974C846.605 213.36 843.326 213.546 840.538 215.821C838.888 217.167 837.647 218.867 836.454 220.591C835.065 222.599 833.279 224.021 830.859 224.451C829.237 224.739 827.571 224.79 825.924 224.946L825.906 224.739Z" fill-rule="evenodd"  fill="#6DBCAB" >
</path>
<path d="M847.054 222.628C847.07 221.738 846.38 220.998 845.475 221C844.556 221.003 843.898 221.754 843.9 222.599C843.902 223.501 844.633 224.202 845.479 224.191C846.338 224.194 847.04 223.498 847.054 222.628ZM832.359 233.997C832.381 232.775 831.434 231.759 830.192 231.763C828.929 231.765 828.026 232.796 828.029 233.956C828.031 235.195 829.035 236.158 830.196 236.143C831.342 236.153 832.336 235.22 832.359 233.997ZM858.786 242.392C858.864 238.09 855.531 234.518 851.16 234.527C846.716 234.537 843.539 238.167 843.547 242.248C843.555 246.608 847.09 249.997 851.174 249.943C855.209 249.982 858.707 246.696 858.786 242.392ZM871.51 242.959C871.51 242.942 871.51 242.924 871.51 242.906C871.504 242.03 870.797 241.325 869.931 241.331C869.011 241.334 868.353 242.085 868.355 242.93C868.357 243.832 869.089 244.534 869.934 244.523C870.793 244.526 871.495 243.829 871.51 242.959ZM830.546 253.903C830.572 252.481 829.47 251.3 828.026 251.303C826.557 251.307 825.507 252.507 825.51 253.855C825.513 255.296 826.681 256.416 828.031 256.398C829.364 256.411 830.52 255.325 830.546 253.903ZM863.472 257.321C863.494 256.098 862.546 255.083 861.305 255.086C860.042 255.089 859.14 256.12 859.142 257.28C859.144 258.518 860.149 259.481 861.309 259.466C862.456 259.477 863.45 258.544 863.472 257.321ZM842.439 261.091C844.115 261.088 845.393 262.457 845.363 264.106C845.333 265.756 843.992 267.015 842.445 267C840.88 267.021 839.525 265.722 839.522 264.051C839.518 262.486 840.736 261.094 842.439 261.091Z" fill-rule="evenodd"  fill="#6DBCAB" >
</path>
<path d="M860.406 258.7C861.365 259.297 862.359 258.974 862.494 257.994C862.585 257.342 862.283 256.783 861.678 256.349C861.258 256.047 860.765 255.89 860.233 256.088C859.698 256.287 859.531 256.701 859.51 257.078C859.497 257.707 859.886 258.376 860.406 258.7Z"   fill="#6DBCAB" >
</path>
<path d="M469.865 107.025C472.153 106.004 473.95 104.124 474.868 101.788C475.009 101.128 475.196 100.479 475.43 99.8458C476.644 97.6033 476.717 94.9152 475.627 92.6098L474.278 89.7943C473.322 87.7322 471.498 86.2045 469.302 85.6273C466.469 84.6714 463.38 84.812 460.645 86.0215C458.392 86.9496 456.458 88.515 455.079 90.5264C453.135 94.1564 452.99 98.4862 454.686 102.239C457.164 105.763 460.991 108.098 465.255 108.686C466.545 108.513 467.787 108.082 468.909 107.419L469.106 107.42C469.471 107.251 469.668 107.025 469.865 107.025ZM467.784 104.548C468.122 104.379 468.29 104.379 468.459 104.21C470.011 103.557 471.278 102.368 472.029 100.859C472.226 100.212 472.451 99.5923 472.704 98.9729C473.619 97.4841 473.683 95.6223 472.872 94.0739L471.692 91.6525C471.092 90.2086 469.819 89.1547 468.29 88.837C466.158 87.9339 463.741 87.9955 461.657 89.0059C459.898 89.8159 458.378 91.067 457.244 92.638C456.14 95.2757 456.08 98.235 457.075 100.916C459.021 103.297 461.753 104.904 464.777 105.449C465.766 105.384 466.727 105.095 467.588 104.604L467.784 104.604L467.784 104.548ZM537.129 103.055C534.353 97.1112 529.06 92.7291 522.709 91.1176C518.923 89.8278 514.958 89.1437 510.96 89.0904C506.267 89.1539 501.637 90.1792 497.355 92.103C490.862 95.145 485.243 99.7847 481.024 105.589C476.133 111.22 475.402 128.902 479.731 138.278C479.236 138.488 478.757 138.732 478.297 139.01C474.64 140.564 471.459 143.06 469.078 146.246C466.576 149.568 466.014 159.535 468.684 164.406C469.846 166.344 471.385 168.029 473.21 169.361C477.201 172.571 482.851 175.161 485.774 174.992C487.839 174.938 489.854 174.346 491.621 173.275C491.79 173.078 491.79 173.078 491.986 173.078C492.321 172.814 492.623 172.512 492.886 172.177C496.454 170.724 499.255 167.846 500.616 164.237C500.812 163.477 501.009 163.28 501.768 161.196C502.53 159.616 503.033 157.924 503.258 156.184C505.607 157.135 508.117 157.623 510.651 157.62C514.452 157.388 518.143 156.249 521.416 154.298C521.575 154.117 521.779 153.981 522.007 153.904C522.962 153.313 523.553 153.116 524.115 152.749C530.58 149.652 536.904 144.021 538.647 137.518C539.237 135.6 539.941 133.72 540.755 131.886C544.044 123.552 544.634 118.287 541.177 111.249C539.884 108.433 538.563 105.618 537.129 103.055ZM460.423 96.1561C460.331 99.358 462.847 102.029 466.044 102.121C469.241 102.214 471.907 99.6936 472 96.4917C472 96.4741 472 96.4566 472.001 96.439L472.001 96.1574C472.005 93.1542 469.655 90.6765 466.66 90.5264L466.379 90.5264C463.182 90.4337 460.516 92.9542 460.423 96.1561ZM537.888 112.797C537.326 111.643 534.627 105.955 533.868 104.604C531.537 99.6217 527.086 95.9594 521.754 94.6369C514.18 92.1588 505.958 92.5801 498.676 95.8195C492.759 98.7162 487.578 102.924 483.525 108.123C479.675 112.628 479.225 129.69 483.244 137.095C487.264 144.5 503.033 153.735 509.751 153.735L510.285 153.735C513.6 153.543 516.824 152.579 519.702 150.919C519.916 150.831 520.108 150.696 520.264 150.525C521.248 149.934 521.81 149.737 522.569 149.343C528.162 146.809 533.728 141.741 535.077 136.645C535.611 134.49 536.365 132.395 537.326 130.394C540.39 122.961 540.671 118.682 537.888 112.797ZM493.87 123.947C493.87 133.883 501.911 141.938 511.831 141.938C521.74 141.938 529.777 133.9 529.793 123.975C529.824 114.054 521.82 105.986 511.915 105.955Q511.887 105.955 511.859 105.955L511.831 105.955C501.911 105.955 493.87 114.01 493.87 123.947ZM501.656 155.509C493.905 152.366 487.021 147.402 481.586 141.037C480.94 141.234 480.265 141.487 479.59 141.769C476.311 143.298 473.425 145.562 471.158 148.385C469.078 150.863 468.684 159.563 470.961 163.73C471.398 164.519 471.937 165.248 472.563 165.898C476.189 169.305 482.598 172.571 485.409 172.43C487.226 172.237 488.99 171.702 490.609 170.853C490.806 170.853 490.806 170.853 491.003 170.656C491.41 170.543 491.792 170.352 492.127 170.093C495.25 168.816 497.744 166.358 499.07 163.251C499.352 162.111 499.738 160.999 500.222 159.929C500.901 158.529 501.384 157.041 501.656 155.509ZM486.846 164.06C490.042 164.15 492.707 161.628 492.797 158.426C492.886 155.26 490.423 152.608 487.264 152.468L486.983 152.468C483.856 152.481 481.298 154.968 481.192 158.099L481.221 158.099C481.13 161.301 483.649 163.97 486.846 164.06Z" fill-rule="evenodd"  fill="#6DBCAB" >
</path>
<path d="M665.162 412.302C665.58 411.818 666.196 411.07 666.526 410.96C666.891 410.853 667.798 411.08 668.496 411.254L668.55 411.268C669.98 411.642 671.586 412.06 672.862 411.158C674.16 410.256 674.248 408.628 674.314 407.198C674.358 406.516 674.402 405.57 674.622 405.284C674.842 404.998 675.744 404.668 676.404 404.426C677.79 403.898 679.374 403.326 679.88 401.852C680.34 400.451 679.449 399.116 678.66 397.932L678.648 397.914C678.252 397.32 677.702 396.506 677.702 396.11C677.702 395.714 678.252 394.9 678.648 394.306C679.462 393.14 680.364 391.798 679.88 390.368C679.396 388.894 677.812 388.3 676.404 387.794C675.744 387.552 674.842 387.222 674.622 386.936C674.402 386.65 674.358 385.704 674.314 385.022C674.226 383.592 674.138 381.964 672.862 381.062C671.586 380.16 669.98 380.578 668.55 380.952L668.496 380.966C667.798 381.14 666.891 381.367 666.526 381.26C666.196 381.15 665.58 380.402 665.162 379.918C664.216 378.774 663.138 377.498 661.51 377.498C659.882 377.498 658.826 378.796 657.88 379.918C657.462 380.402 656.846 381.15 656.516 381.26C656.152 381.367 655.244 381.14 654.546 380.966C654.528 380.961 654.51 380.957 654.492 380.952C653.062 380.578 651.456 380.16 650.18 381.062C648.882 381.964 648.794 383.592 648.728 385.022C648.684 385.704 648.64 386.65 648.42 386.936C648.2 387.222 647.298 387.552 646.638 387.794C645.252 388.322 643.668 388.894 643.162 390.368C642.702 391.769 643.593 393.104 644.382 394.288L644.394 394.306C644.79 394.9 645.34 395.692 645.34 396.088C645.34 396.484 644.79 397.298 644.394 397.892C643.58 399.058 642.678 400.4 643.162 401.83C643.646 403.304 645.23 403.898 646.638 404.404C647.298 404.646 648.2 404.976 648.42 405.262C648.64 405.548 648.684 406.494 648.728 407.176C648.816 408.606 648.904 410.234 650.18 411.136C651.456 412.038 653.062 411.62 654.492 411.246L654.546 411.232C655.244 411.058 656.152 410.831 656.516 410.938C656.846 411.048 657.462 411.796 657.88 412.28C658.804 413.424 659.882 414.7 661.51 414.7C663.138 414.7 664.216 413.424 665.162 412.302ZM657.352 408.43C658.452 408.782 659.244 409.728 659.992 410.63C660.388 411.092 661.18 412.06 661.488 412.06C661.796 412.06 662.61 411.092 662.984 410.63C663.754 409.728 664.524 408.782 665.624 408.43C666.768 408.078 668 408.386 669.21 408.694C669.804 408.848 670.926 409.134 671.212 409.002C671.432 408.804 671.498 407.616 671.52 407.066C671.586 405.878 671.652 404.646 672.356 403.722C673.06 402.798 674.226 402.38 675.392 401.94C675.964 401.742 677.13 401.302 677.24 401.038C677.28 400.778 676.776 400.011 676.436 399.493L676.436 399.493C676.401 399.441 676.368 399.391 676.338 399.344C675.656 398.332 674.952 397.276 674.952 396.11C674.952 394.944 675.656 393.888 676.338 392.876C676.668 392.392 677.284 391.468 677.24 391.182C677.13 390.918 675.964 390.5 675.392 390.28C674.248 389.862 673.06 389.422 672.356 388.498C671.652 387.574 671.586 386.342 671.52 385.154C671.498 384.582 671.432 383.416 671.19 383.218C670.926 383.086 669.804 383.372 669.21 383.526L669.184 383.533C668.004 383.839 666.76 384.161 665.624 383.79C664.524 383.438 663.732 382.492 662.984 381.59C662.588 381.128 661.796 380.16 661.488 380.16C661.18 380.16 660.366 381.128 659.992 381.59C659.222 382.492 658.452 383.438 657.352 383.79C656.208 384.142 654.976 383.834 653.766 383.526C653.172 383.372 652.05 383.086 651.764 383.218C651.544 383.416 651.478 384.604 651.456 385.154C651.39 386.342 651.324 387.574 650.62 388.498C649.916 389.422 648.75 389.84 647.584 390.28C647.012 390.478 645.846 390.918 645.736 391.182C645.696 391.442 646.2 392.209 646.54 392.727C646.575 392.78 646.608 392.829 646.638 392.876C647.32 393.888 648.024 394.944 648.024 396.11C648.024 397.298 647.32 398.332 646.638 399.344C646.308 399.828 645.692 400.752 645.736 401.038C645.846 401.302 647.012 401.72 647.584 401.94C648.728 402.358 649.916 402.798 650.598 403.722C651.302 404.646 651.368 405.878 651.434 407.066C651.456 407.638 651.522 408.804 651.764 409.002C652.028 409.134 653.15 408.848 653.744 408.694C654.602 408.496 655.438 408.276 656.252 408.276C656.626 408.276 657 408.32 657.352 408.43ZM659.728 396.88C663.072 396.572 665.492 393.69 665.162 390.478C665.008 388.916 664.194 387.508 662.962 386.54C661.708 385.55 660.102 385.088 658.518 385.242C656.934 385.374 655.46 386.144 654.426 387.354C653.414 388.542 652.93 390.082 653.084 391.644C653.238 393.206 654.052 394.614 655.284 395.582C656.384 396.44 657.726 396.902 659.112 396.902C659.31 396.902 659.53 396.902 659.728 396.88ZM658.782 387.86C657.902 387.948 657.11 388.366 656.538 389.026C655.988 389.686 655.724 390.522 655.812 391.38C655.9 392.238 656.34 393.008 657.022 393.536C657.704 394.086 658.584 394.328 659.464 394.24C661.246 394.108 662.588 392.546 662.434 390.742L662.434 390.72C662.214 389.07 660.806 387.816 659.112 387.838C659.002 387.838 658.892 387.838 658.782 387.86ZM668.66 394.724C671.278 394.724 673.412 396.77 673.412 399.3C673.412 401.83 671.3 403.876 668.66 403.876C666.042 403.876 663.908 401.83 663.908 399.3C663.908 396.77 666.042 394.724 668.66 394.724ZM660.124 402.006C659.662 403.15 658.76 404.074 657.638 404.558C657.022 404.822 656.362 404.954 655.702 404.954C653.854 404.976 652.16 403.92 651.346 402.248C650.312 399.982 651.302 397.298 653.568 396.242C653.612 396.22 653.678 396.198 653.722 396.176L654.844 398.596C653.876 398.992 653.392 400.114 653.81 401.104C653.81 401.126 653.832 401.148 653.832 401.17C654.316 402.16 655.482 402.578 656.494 402.138C656.978 401.94 657.352 401.544 657.55 401.06C657.748 400.576 657.726 400.048 657.506 399.564L660.014 398.486C660.542 399.586 660.586 400.862 660.124 402.006ZM668.792 401.236C667.736 401.258 666.834 400.444 666.79 399.366C666.768 398.31 667.582 397.408 668.66 397.364C669.76 397.342 670.662 398.2 670.662 399.3C670.662 400.334 669.826 401.192 668.792 401.236Z" fill-rule="evenodd"  fill="#6DBCAB" >
</path>
</svg>
